<?xml version="1.0" encoding="UTF-8" standalone="no"?>
<!-- Created with Inkscape (http://www.inkscape.org/) -->

<svg
   version="1.1"
   id="svg1"
   width="480"
   height="203.94667"
   viewBox="0 0 480 203.94667"
   sodipodi:docname="RRRC Distressed No Vegas.eps"
   xmlns:inkscape="http://www.inkscape.org/namespaces/inkscape"
   xmlns:sodipodi="http://sodipodi.sourceforge.net/DTD/sodipodi-0.dtd"
   xmlns="http://www.w3.org/2000/svg"
   xmlns:svg="http://www.w3.org/2000/svg">
  <defs
     id="defs1" />
  <sodipodi:namedview
     id="namedview1"
     pagecolor="#ffffff"
     bordercolor="#000000"
     borderopacity="0.25"
     inkscape:showpageshadow="2"
     inkscape:pageopacity="0.0"
     inkscape:pagecheckerboard="0"
     inkscape:deskcolor="#d1d1d1">
    <inkscape:page
       x="0"
       y="0"
       inkscape:label="1"
       id="page1"
       width="480"
       height="203.94667"
       margin="0"
       bleed="0" />
  </sodipodi:namedview>
  <g
     id="g1"
     inkscape:groupmode="layer"
     inkscape:label="1">
    <g
       id="group-R5">
      <path
         id="path2"
         d="m 3232.29,823.066 -10.78,-10 c 0,0 0,15.157 4.38,22.657 0,0 1.09,28.75 -4.38,33.593 0,0 27.03,-30 10.78,-46.25 z m -27.34,372.184 c 0,0 -1.25,-22.5 14.69,-24.37 0,0 3.12,-25 -20.31,-6.56 0,0 -14.07,39.37 5.62,30.93 z m -39.37,-272.652 c 0,0 -3.13,0.625 -2.82,8.593 0,0 1.41,16.25 -4.68,17.032 l -5.63,0.625 v -21.25 c 0,0 -20,8.593 -26.87,26.093 0,0 -3.44,13.594 15.93,19.375 l -0.31,20.313 c 0,0 15.94,-9.219 18.13,-22.5 h 8.59 l 0.31,21.25 5.63,-5.625 v -16.719 h 4.06 c 0,0 -0.63,-13.125 0,-13.594 0.62,-0.468 -8.13,-29.218 -12.34,-33.593 z m 99.78,-38.403 -32.39,39.149 c -2.34,-1.551 -11.34,-7.309 -16.48,-7.309 v 27.227 l -67.59,81.718 35.29,30.35 -1.22,18.36 c 0,0 -3.75,9.69 -4.06,16.88 0,0 -14.69,-5.63 -16.88,16.25 0,0 -6.56,1.56 -4.69,-8.44 0,0 -8.12,-16.25 -8.12,4.69 0,0 -0.94,10.31 13.75,14.37 0,0 3.36,10.49 5.45,18.16 l -64.69,-56.03 -40.39,-35.04 -11.72,-9.68 v -4.03 l 158.87,-192.015 -14.57,-13.43 -160.84,195.075 -17.16,-15.14 -31.96,-28.22 V 809.43 h -19.78 v 366.61 h 19.78 v -173.41 l 65.66,56.67 40.18,34.68 -0.51,0.63 64.45,54.64 -13.4,10.54 v 57.81 c 0,0 3.91,11.87 15.63,-1.88 l 32.5,-51.56 c 0,0 7.03,-6.25 -5.16,-18.44 l -11.09,-9.68 0.31,-21.72 c 0,0 19.69,6.25 20,2.81 l 0.78,-12.97 c 0,0 -6.25,-7.97 -6.09,-18.44 l 0.15,-17.03 c 0,0 6.41,-3.75 11.72,2.5 v 25.31 c 0,0 12.19,5.94 11.25,-9.06 l 8.6,-0.5 8,6.88 53.26,46.88 -105.62,120.84 -7.62,-6.64 c 3.23,-2.86 21.91,-20.93 -21.32,-18.58 l -24.67,-21.5 -72.03,-61.84 v 80.98 h -153.99 v -102.77 c 0,0 31.25,15.47 0,-28.44 V 751.508 h 133.68 v 9 c 0,0 -3.59,6.875 0,10.781 l 0.16,9.375 c 0,0 -8.28,5.313 -0.47,17.969 0,0 -1.25,19.062 5.47,9.219 0,0 -1.41,-45.157 9.53,-47.344 l 5.62,-0.547 v 129.297 l 133.57,-161.985 123.89,104.903 -43.04,52.019"
         style="fill:#729bc7;fill-opacity:1;fill-rule:nonzero;stroke:none"
         transform="matrix(0.13333333,0,0,-0.13333333,0,203.94667)" />
      <path
         id="path3"
         d="m 3232.29,822.27 -10.78,-10 c 0,0 0,15.156 4.38,22.656 0,0 1.09,28.75 -4.38,33.594 0,0 27.03,-30 10.78,-46.25 z m 28.18,67.046 c -21.39,9.911 -49.18,23.258 -56.29,23.559 -14.02,0.598 -16.5,1.313 -27.7,7.445 -10.8,5.91 -43.01,15.504 -53.79,20.977 -10.89,5.555 -11.95,11 -25.25,4.562 -9.19,-4.433 -11.72,-4.914 -21.92,-4.847 -10.52,0.062 -13,-5.09 -23.84,-9.989 -5.06,-2.289 -7.27,-3.679 -11.82,-6.293 -1.83,-1.05 -5.68,-1.64 -7.38,-3.335 -1.23,-1.223 -9.63,-5.497 -10.21,-5.997 -7.41,-6.39 -6.88,-7.941 -18.35,-7.859 -2.96,7.422 -2.19,12.262 -9.41,17.481 -4.88,3.531 -10.58,4.871 -15.39,8.316 -13.1,9.363 -20.75,17.836 -38.87,17.785 -9.18,-0.027 -15.54,-3.371 -24.45,-4.269 -4.02,-0.407 -10.87,-1.504 -14.9,-0.637 -1.52,0.328 -2.79,1.012 -3.95,1.738 V 750.715 h 133.68 v 8.996 c 0,0 -3.59,6.875 0,10.781 l 0.16,9.375 c 0,0 -8.28,5.313 -0.47,17.969 0,0 -1.25,19.062 5.47,9.219 0,0 -1.41,-45.157 9.53,-47.344 l 5.62,-0.547 v 129.293 l 133.57,-161.973 123.89,104.895 -47.93,57.937"
         style="fill:#e86d1f;fill-opacity:1;fill-rule:nonzero;stroke:none"
         transform="matrix(0.13333333,0,0,-0.13333333,0,203.94667)" />
      <path
         id="path4"
         d="m 2713.34,740 c 0,0 3.12,21.875 0,23.438 0,0 -10.31,-0.313 -10.31,7.812 v 26.563 c 0,0 11.25,6.875 13.12,-1.563 l -1.56,-24.687 c 0,0 8.12,-3.75 7.19,-17.5 0,0 -2.5,-13.438 -8.44,-14.063 z m -31.88,129.688 c 0,0 -15.93,16.25 -27.5,-4.375 0,0 -5.31,-4.375 -8.12,0 0,0 -11.25,25.937 24.06,25.937 0,0 32.81,8.75 39.06,-10.625 0,0 -26.56,4.063 -27.5,-10.937 z m -114.37,107.187 -1.25,-29.375 c 0,0 -0.35,29.375 -8.77,33.438 l 0.02,20.002 c 0,0 -0.63,19.37 5,0 0,0 11.87,-19.377 5,-24.065 z m 239.53,-44.16 c -4.58,-4.367 -9.19,-8.262 -13.8,-11.934 h 11.77 c 5.94,0 0,-9.375 0,-9.375 l -3.75,-35.773 c -4.38,-28.27 -12.81,-14.918 -12.81,-14.918 v 18.816 c 2.37,13.328 -1.62,33.856 -2.05,35.985 -8.13,-5.852 -16.3,-10.633 -24.52,-14.348 l 0.63,-40.242 c 11.25,-18.446 -12.19,-29.988 -12.19,-29.988 -20,-3.125 -1.87,16.25 -1.87,16.25 9.06,11.562 5.93,44.062 5.93,44.062 3.34,-0.605 7.25,9.352 7.47,9.902 -14.26,-6.449 -28.66,-9.75 -43.17,-9.75 -28.24,0 -52.44,9.946 -72.59,29.844 -20.14,19.891 -30.22,43.734 -30.22,71.524 0,27.77 10.08,51.61 30.22,71.52 12.58,12.42 26.65,20.96 42.22,25.63 l -0.04,-0.01 8.52,22.26 c 0,0 2.91,12.52 -11.67,10.02 0,0 -23.34,-10.46 -45,-10.02 0,0 -5,-0.01 -5,-12.28 0,0 9.16,-15.93 -15,-11.03 0,0 -9.58,0.83 -14.58,-5.42 0,0 1.67,-3.27 -9.58,-3.92 0,0 -15,-3.35 0,14.25 0,0 9.21,10.44 8.03,21.12 -1.67,-1.52 -3.39,-2.9 -5.04,-4.51 -33.18,-32.5 -49.75,-71.7 -49.75,-117.61 0,-46.391 16.63,-85.715 49.92,-117.969 33.28,-32.262 73.91,-48.391 121.87,-48.391 28.68,0 54.84,6.477 78.49,19.43 l 9.53,-16.606 c -28.26,-14.367 -57.59,-21.543 -88.02,-21.543 -53.23,0 -98.38,18.008 -135.5,54.043 -37.12,36.02 -55.68,79.696 -55.68,131.036 0,51.33 18.56,95.12 55.68,131.39 15.37,15 32.13,26.72 50.13,35.52 0.16,0.74 0.34,1.51 0.34,2.09 0,0 1.66,11.67 -9.59,11.67 l -0.83,5.83 h 21.67 v -5 c 0,0 -1.3,-4.6 -2.76,-10.48 23.12,9.76 48.26,14.76 75.54,14.76 22.77,0 49.06,-5.78 78.83,-17.32 l -7.87,-17.3 c -7.37,3.12 -14.76,5.59 -22.17,7.75 0.95,-2.34 0.1,-4.58 0.1,-4.58 -25,-20.42 -25,8.75 -25,8.75 1.48,0.24 2.8,0.4 4.12,0.57 -9.75,1.65 -19.51,2.7 -29.32,2.7 -28.56,0 -54.58,-6.17 -78.09,-18.35 l 1.2,-13.58 c 0,0 24.58,2.51 29.58,7.92 2.18,2.37 2.42,2.94 2.03,2.88 l -2.03,-1.22 c 0,0 1.53,1.14 2.03,1.22 l 20.89,12.53 v 6.25 c 0,0 14.99,2.5 8.33,-22.5 0,0 26.32,-5.52 1.71,-14.01 0,0 -5.63,-20.9 -12.12,-29.26 l -3.74,-1.04 c 9.31,2.77 19.17,4.17 29.56,4.17 15.02,0 28.7,-2.45 41.19,-7.04 -0.38,1.54 -3.94,15.58 -8.26,16.37 0,0 -0.42,27.09 12.5,5 0,0 6.92,-14.74 -3.94,-21.49 16.34,-6.07 30.59,-15.95 42.6,-29.92 l 73.57,137.38 c -47.3,34.38 -99.41,51.57 -156.34,51.57 -71.62,0 -132.66,-24.67 -183.13,-73.99 -50.48,-49.33 -75.72,-109.08 -75.72,-179.24 0,-47.235 11.59,-89.778 34.66,-127.665 27.33,10.231 22.49,-30.324 22.39,-31.093 5.84,-6.953 12.09,-13.731 18.83,-20.317 50.59,-49.449 111.58,-74.164 182.97,-74.164 59.33,0 114.96,19.77 166.85,59.332 l -79.16,133.852"
         style="fill:#729bc7;fill-opacity:1;fill-rule:nonzero;stroke:none"
         transform="matrix(0.13333333,0,0,-0.13333333,0,203.94667)" />
      <path
         id="path5"
         d="m 2607.2,1118.02 1.67,-13.75 c 0,0 17.08,-10.87 13.75,7.9 0,0 0.84,15.55 6.67,18.41 0,0 0.08,1.83 -0.53,3.56 -7.46,-4.67 -14.65,-10.01 -21.56,-16.01 0,-0.04 0,-0.06 0,-0.11"
         style="fill:#729bc7;fill-opacity:1;fill-rule:nonzero;stroke:none"
         transform="matrix(0.13333333,0,0,-0.13333333,0,203.94667)" />
      <path
         id="path6"
         d="m 2749.9,830.18 c -20,-3.125 -1.87,16.25 -1.87,16.25 9.06,11.562 5.93,44.062 5.93,44.062 3.44,-0.625 7.5,10 7.5,10 l 0.63,-40.32 c 11.25,-18.449 -12.19,-29.992 -12.19,-29.992 z m -36.56,-90.938 c 0,0 3.12,21.875 0,23.438 0,0 -10.31,-0.313 -10.31,7.812 v 26.563 c 0,0 11.25,6.875 13.12,-1.563 l -1.56,-24.687 c 0,0 8.12,-3.75 7.19,-17.5 0,0 -2.5,-13.438 -8.44,-14.063 z m -31.88,129.688 c 0,0 -15.93,16.25 -27.5,-4.375 0,0 -5.31,-4.375 -8.12,0 0,0 -11.25,25.937 24.06,25.937 0,0 32.81,8.75 39.06,-10.625 0,0 -26.56,4.063 -27.5,-10.937 z m 125.16,63.035 c -4.62,-4.399 -9.27,-8.285 -13.92,-11.942 h 11.89 c 5.94,0 0,-9.375 0,-9.375 l -3.75,-35.769 c -4.38,-28.274 -12.81,-14.922 -12.81,-14.922 v 18.816 c 2.41,13.575 -1.78,34.665 -2.07,36.129 -22.16,-15.765 -43.68,-23.238 -59.32,-22.824 -40.29,1.07 -56.93,6.945 -74.2,22.082 -10.78,-0.129 -22,-0.605 -30.9,5.531 -12.51,8.645 -27.81,25.676 -31.15,32.887 -0.61,6.473 -11.56,18.203 -14.93,23.68 -1.39,2.238 -3.63,4.109 -6.27,5.719 0.16,-2.524 -0.35,-4.668 -2.1,-5.86 l -1.25,-29.375 c 0,0 -0.35,29.375 -8.77,33.438 l 0.01,6.89 c -2.54,0.739 -5,1.328 -7.2,1.778 -2.33,0.476 -4.4,0.882 -6.37,1.308 1.74,-2.316 3.05,-4.922 2.95,-7.672 0,0 -1.56,-21.367 -15.62,-16.054 0,0 8.24,12.59 5.41,25.699 -3.51,1.195 -6.93,2.801 -10.96,5.586 -11.57,7.985 -16.36,7.935 -30.38,7.335 -7.25,-0.29 -24.27,-4.44 -34.64,-4.87 -0.08,-2.715 -0.19,-5.418 -0.19,-8.168 0,-47.239 11.59,-89.778 34.67,-127.66 27.31,10.222 22.48,-30.301 22.38,-31.094 5.84,-6.949 12.09,-13.727 18.83,-20.313 50.59,-49.461 111.58,-74.172 182.97,-74.172 59.33,0 114.96,19.774 166.85,59.332 l -79.16,133.86"
         style="fill:#e86d1f;fill-opacity:1;fill-rule:nonzero;stroke:none"
         transform="matrix(0.13333333,0,0,-0.13333333,0,203.94667)" />
      <path
         id="path7"
         d="m 1875.16,891.676 c 0,0 -9.36,6.512 0,13.601 0,0 5.95,7.364 18.14,-8.504 0,0 9.65,-10.351 1.99,-16.515 0,0 -5.1,-7.567 -20.13,11.418 z m -20.57,-84.738 -69.58,115.851 c -20.72,-4.012 -43.09,-6.008 -67.11,-6.008 h -45.56 V 806.938 h -18.72 v 366.612 h 72.77 c 33.42,0 60.32,-3.66 80.69,-10.94 20.36,-7.31 38.1,-19.31 53.15,-36.03 4.87,-5.37 9.11,-11.1 12.8,-17.17 3.92,-0.72 8,-1.75 12.32,-3.44 0,0 -3.69,-0.56 -9.47,-1.76 9.74,-18.12 14.72,-39.1 14.72,-63.1 0,-55.34 -28.35,-92.895 -85.11,-112.669 l 72.05,-121.503 z M 1619.5,1044.46 c 0,0 -13.33,13.6 -14.46,26.64 0,0 -4.03,18.72 3.4,28.06 v 62.07 h 6.24 l 1.41,-62.07 c 0,0 3.41,-4.24 3.41,-13.03 z m 278.53,-136.159 c 18.38,15.551 31.79,29.437 40.27,41.683 18.36,26.133 27.54,57.326 27.54,93.606 0,26.83 -6.41,53.32 -19.26,79.45 -12.81,26.14 -29.96,47.8 -51.39,64.99 -36.25,28.96 -84.04,43.44 -143.38,43.44 H 1581.22 V 749.02 h 153.99 v 118.671 l 78.05,-118.671 h 175.2 l -90.43,159.281"
         style="fill:#729bc7;fill-opacity:1;fill-rule:nonzero;stroke:none"
         transform="matrix(0.13333333,0,0,-0.13333333,0,203.94667)" />
      <path
         id="path8"
         d="m 1794.11,1082.88 c 7.99,-9.06 12.1,-20.7 12.1,-35.07 0,-20.47 -8.73,-35.67 -26.14,-45.56 -8.25,-4.945 -20.84,-7.418 -37.8,-7.418 h -7.06 v 61.808 h -19.34 c 0.27,16.72 18.14,25.67 19.34,26.25 v 18.25 h 7.06 c 16.48,0 29.08,-2.35 37.8,-7.05 5.08,-2.82 9.32,-6.18 12.92,-9.98 1.86,6.3 11.99,38.56 15.85,5.13 0,0 -2.73,-7.75 -14.73,-6.36 z m -51.32,-126.009 c 0,0 -2.26,20.137 14.75,16.16 0,0 2.54,-21.836 -14.75,-16.16 z m 129.1,84.239 c 0,22.73 -4.86,42.19 -14.23,58.62 -6.1,-1.73 -12.6,-3.8 -19.07,-6.35 0,0 -19.82,-6.95 -22.67,-8.94 0,0 12.32,19.61 35.54,24.77 -6.42,8.66 -14.21,16.42 -23.71,23.02 -19.79,13.89 -41.68,21.66 -65.7,23.31 -7.54,0.47 -19.19,0.71 -34.97,0.71 h -54.74 V 933.379 h 41.32 c 60.28,0 102.43,11.062 126.44,33.203 21.19,19.773 31.79,44.618 31.79,74.528"
         style="fill:#729bc7;fill-opacity:1;fill-rule:nonzero;stroke:none"
         transform="matrix(0.13333333,0,0,-0.13333333,0,203.94667)" />
      <path
         id="path9"
         d="m 1875.16,891.676 c 0,0 -9.36,6.512 0,13.601 0,0 5.95,7.364 18.14,-8.504 0,0 9.65,-10.351 1.99,-16.515 0,0 -5.1,-7.567 -20.13,11.418 z m -65.48,-18.703 c 0,0 13.03,16.152 26.35,14.453 0,0 -7.63,-14.735 -26.35,-14.453 z m -66.89,83.898 c 0,0 -2.26,20.137 14.75,16.16 0,0 2.54,-21.836 -14.75,-16.16 z m 155.24,-48.57 c 18.36,15.551 31.79,29.437 40.25,41.683 14.88,21.164 23.63,45.704 26.47,73.506 -7.76,-0.21 -13.75,1.85 -20.86,2.83 -17.5,2.45 -39.12,-5.8 -61.49,-5.03 -7.93,0.27 -22.81,-7.81 -29.67,-11.69 -6.13,-3.48 -11.89,-8.15 -16.62,-11.905 -5.54,-4.406 -10.54,-3.816 -17.46,-4.738 -10.72,-1.41 -12.01,1.754 -21.57,4.16 -5.8,1.461 -12.79,2.117 -19.39,3.893 -8.21,-4.108 -19.99,-6.178 -35.42,-6.178 h -7.06 v 11.848 c -7.67,-0.1 -15.14,0 -22.6,0.7 -21.74,2.06 -44.95,-0.56 -67.08,-1.49 -9.98,-0.43 -21.5,-2.35 -30.56,0.54 -8.54,2.73 -17.16,9.8 -27.06,13.46 -2.49,0.91 -4.65,1.79 -6.69,2.6 V 749.02 h 153.99 v 118.675 l 78.05,-118.675 h 175.2 l -90.43,159.281"
         style="fill:#e86d1f;fill-opacity:1;fill-rule:nonzero;stroke:none"
         transform="matrix(0.13333333,0,0,-0.13333333,0,203.94667)" />
      <path
         id="path10"
         d="m 1290.7,917.871 c -20.14,-19.551 -45.63,-29.32 -76.47,-29.32 h -4.94 v 207.679 h 4.94 c 30.84,0 56.33,-9.84 76.47,-29.49 20.13,-19.67 30.2,-44.57 30.2,-74.701 0,-29.91 -10.07,-54.633 -30.2,-74.168 z m -5.01,-59.762 c 0,0 -18.75,14.161 -25.42,16.25 0,0 -7.08,17.512 25.42,4.59 0,0 19.58,-21.679 0,-20.84 z m -118.76,130.383 -2.91,-45.84 -6.25,2.657 -4.17,29.011 c -7.86,23.145 6.25,24.172 6.25,24.172 12.09,14.998 7.08,-10 7.08,-10 z m 109.1,160.358 c -26.36,6.36 -66.98,9.54 -121.84,9.54 h -9.88 V 825.688 h 9.88 c 66.41,0 113.38,5.234 140.92,15.707 27.55,10.48 49.33,31.496 65.34,63.054 13.65,26.367 20.49,55.567 20.49,87.59 0,39.781 -9.66,74.051 -28.96,102.771 -19.31,28.73 -44.63,46.74 -75.95,54.04"
         style="fill:#729bc7;fill-opacity:1;fill-rule:nonzero;stroke:none"
         transform="matrix(0.13333333,0,0,-0.13333333,0,203.94667)" />
      <path
         id="path11"
         d="m 1368.22,882.898 c -21.43,-32.253 -48.86,-52.746 -82.29,-61.453 -31.32,-8.238 -75.23,-12.367 -131.74,-12.367 h -28.6 v 366.612 h 28.6 c 68.51,0 118.19,-5.88 149.04,-17.65 30.85,-11.78 55.22,-34.03 73.12,-66.75 16.01,-29.2 24.01,-61.82 24.01,-97.837 0,-41.445 -10.71,-78.297 -32.14,-110.555 z m -297.54,6.004 c 0,0 -12.5,1.25 -3.75,26.25 0,0 5.03,10.391 -3.11,17.489 0,0 -1.89,22.511 6.86,7.511 0,0 9.17,-15.82 9.17,-29.16 0,0 3.75,-22.09 -9.17,-22.09 z m 364.12,242.118 c -25.32,40.84 -57.98,68.1 -98.01,81.75 -41.92,13.91 -94.78,20.84 -158.58,20.84 h -125.04 v -204.67 c 2.31,0.11 6.58,0.45 9.22,1.62 0,0 10,12.5 12.5,18.75 h 2.92 v -27.5 c 0,0 7.92,-18.75 7.08,-25.419 l -1.67,-1.668 v -19.16 c 0,0 15.84,-2.512 15.84,-10.84 v -32.082 c 0,0 -14.17,25.422 -21.67,27.922 0,0 -13.75,2.5 -16.67,18.75 0,0 -4.16,2.5 -4.16,24.997 0,0 0.31,8.14 -3.39,10 V 751.16 h 28.1 c 7.35,10.793 12.22,3.328 13.83,0 h 83.11 c 73.69,0 129.91,8.235 168.64,24.723 38.73,16.476 69.52,45.324 92.37,86.527 22.36,40.031 33.55,83.238 33.55,129.629 0,51.801 -12.66,98.131 -37.97,138.981"
         style="fill:#729bc7;fill-opacity:1;fill-rule:nonzero;stroke:none"
         transform="matrix(0.13333333,0,0,-0.13333333,0,203.94667)" />
      <path
         id="path12"
         d="m 1290.7,917.871 c -20.14,-19.551 -45.63,-29.32 -76.47,-29.32 h -4.94 v 207.679 h 4.94 c 30.84,0 56.33,-9.84 76.47,-29.49 20.13,-19.66 30.2,-44.57 30.2,-74.701 0,-29.91 -10.07,-54.633 -30.2,-74.168 z m -5.01,-59.762 c 0,0 -18.75,14.161 -25.42,16.25 0,0 -7.08,17.512 25.42,4.59 0,0 19.58,-21.679 0,-20.84 z m -118.76,130.383 -2.91,-45.84 -6.25,2.657 -4.17,29.011 c -7.86,23.145 6.25,24.172 6.25,24.172 12.09,14.998 7.08,-10 7.08,-10 z m -96.25,-99.59 c 0,0 -12.5,1.25 -3.75,26.25 0,0 5.03,10.391 -3.11,17.489 0,0 -1.89,22.511 6.86,7.511 0,0 9.17,-15.82 9.17,-29.16 0,0 3.75,-22.09 -9.17,-22.09 z m 389.65,186.158 c -4.8,1.82 -9.98,3.06 -14.71,3.33 -11.34,0.62 -19.23,2.8 -29.05,5.24 -22.36,5.57 -33.21,1.45 -56.15,3.57 -10.35,0.95 -23.13,4.71 -31.97,8.09 -4.88,1.87 -22.64,6.16 -26.9,7.28 -10.78,2.87 -22.21,-1.23 -33.01,-1.84 -8.96,-0.49 -17.74,2.23 -26.59,1.44 -9.62,-0.87 -18.13,-2.77 -27.44,-4.38 -17.88,-3.09 -37.11,-1.51 -54.45,-6.65 -10.91,-3.24 -10.99,-8.91 -19.45,-14.59 -4.05,-2.71 -9.03,-2.18 -12.92,-4.21 -3.69,-1.92 -6.88,-6.75 -10.58,-8.14 -9.71,-3.64 -14.74,0.05 -21.16,3.98 -8.73,5.36 -10.87,6.74 -22.14,6.36 -4.98,-0.17 -13.43,0.19 -20.64,-0.53 v -45.07 c 2.31,0.11 6.58,0.45 9.22,1.62 0,0 10,12.5 12.5,18.75 h 2.92 v -27.5 c 0,0 7.92,-18.75 7.08,-25.419 l -1.67,-1.668 v -19.16 c 0,0 15.84,-2.512 15.84,-10.84 v -32.082 c 0,0 -14.17,25.422 -21.67,27.922 0,0 -13.75,2.5 -16.67,18.75 0,0 -4.16,2.5 -4.16,24.997 0,0 0.31,8.14 -3.39,10 V 751.16 h 28.1 c 7.35,10.793 12.22,3.328 13.83,0 h 83.11 c 73.69,0 129.91,8.235 168.64,24.723 38.73,16.476 69.52,45.324 92.37,86.527 22.36,40.031 33.55,83.238 33.55,129.629 0,29.461 -4.25,57.091 -12.44,83.021"
         style="fill:#e86d1f;fill-opacity:1;fill-rule:nonzero;stroke:none"
         transform="matrix(0.13333333,0,0,-0.13333333,0,203.94667)" />
      <path
         id="path13"
         d="m 965.023,758.047 c 0,0 1.047,26.125 8.36,0 z m -18.812,34.961 c 0,0 -9.41,26.082 8.359,10.195 0,0 14.641,-23.32 -8.359,-10.195 z M 766.438,905.422 c 0,0 -4.176,48.074 10.453,0 0,0 5.222,-48.078 -10.453,0 z m -6.27,80.965 c 0,0 -15.68,37.153 0,18.323 0,0 18.812,-25.159 0,-18.323 z m -15.68,23.653 c -15.679,5.32 -7.32,19.76 -7.32,19.76 l 2.551,16.72 c 26.586,-38.67 4.769,-36.48 4.769,-36.48 z m -15.449,52.16 v 37.98 c 0,0 24.266,-41.12 0,-37.98 z m 118.922,37.98 c 0,9.77 -17.77,42.19 -17.77,42.19 35.532,-19.12 17.77,-42.19 17.77,-42.19 z M 872.34,877.602 v 55.8 H 1000.2 V 1053.48 H 872.34 v 53.69 h 109.848 c -1.422,4.61 -5.547,15.37 -12.985,14.11 0,0 -30.312,29.85 21.949,33.47 v -47.58 h 11.518 v 126.44 h -72.139 c 0,0 4.918,-28.8 2.383,-57.92 h 21.016 v -17.31 h -23.563 c -1.937,-9 -4.844,-17.48 -9.246,-24.45 0,0 -5.762,7.97 -7.449,24.45 H 809.477 V 1002.27 H 946.863 V 984.969 H 809.477 v -0.039 c 2.086,-0.805 4.371,-1.789 7.128,-3.211 0,0 18.063,-22.992 -7.128,-15.406 V 825.68 H 953.93 V 809.078 H 790.758 v 366.612 h 122.847 c 1.157,15.07 5.637,34.25 16.926,57.92 h -34.492 c 0,0 2.09,-18.81 -18.812,0 h -54.258 c 0,0 11.402,-16.72 -17.864,0 h -86.75 V 845.039 c 24.04,-51.211 0,-67.941 0,-67.941 V 751.156 H 1007.61 V 877.602 H 872.34"
         style="fill:#729bc7;fill-opacity:1;fill-rule:nonzero;stroke:none"
         transform="matrix(0.13333333,0,0,-0.13333333,0,203.94667)" />
      <path
         id="path14"
         d="m 1200.34,490.609 h 9.13 v 179 h -9.13 z m -35.36,207.286 h 79.84 V 462.328 h -79.84 v 235.567"
         style="fill:#e86d1f;fill-opacity:1;fill-rule:nonzero;stroke:none"
         transform="matrix(0.13333333,0,0,-0.13333333,0,203.94667)" />
      <path
         id="path15"
         d="m 965.023,758.047 c 0,0 1.047,26.125 8.36,0 z m -18.812,34.961 c 0,0 -9.41,26.082 8.359,10.195 0,0 14.641,-23.32 -8.359,-10.195 z M 800.93,969.363 c 0,0 -16.719,29.075 15.675,12.356 0,0 21.95,-27.84 -15.675,-12.356 z m -34.492,-63.941 c 0,0 -4.176,48.074 10.453,0 0,0 5.222,-48.078 -10.453,0 z m 105.906,-27.824 v 55.804 H 1000.2 v 117.438 c -4.485,-3.79 -9.165,-8.16 -14.845,-8.12 -26.335,0.12 -56.085,-3.4 -79.921,-8.79 -14.11,-3.21 -26.364,-1.67 -38.032,-8.36 -13.242,-7.56 -22.312,-7.72 -36.382,-11.03 -11.153,-2.63 -18.825,-11.24 -27.305,-17.845 -9.367,-7.312 -15.688,-12.004 -28.652,-13.64 -9.415,-1.184 -15.645,-2.293 -21.887,-6.321 -7.078,-4.589 -5.094,-6.754 -15.887,-8 -5.59,-0.632 -12.726,-1.793 -18.934,-1 V 845.039 c 24.04,-51.211 0,-67.941 0,-67.941 V 751.156 H 1007.61 V 877.598 H 872.344"
         style="fill:#e86d1f;fill-opacity:1;fill-rule:nonzero;stroke:none"
         transform="matrix(0.13333333,0,0,-0.13333333,0,203.94667)" />
      <path
         id="path16"
         d="m 1222.55,1094.32 c 2.04,0.37 4.03,0.71 6.03,1.06 -4.66,0.5 -9.42,0.85 -14.35,0.85 h -4.94 v -4 c 2.01,0.25 4.05,0.43 6.05,0.77 2.45,0.43 4.84,0.87 7.21,1.32"
         style="fill:#ffffff;fill-opacity:1;fill-rule:nonzero;stroke:none"
         transform="matrix(0.13333333,0,0,-0.13333333,0,203.94667)" />
      <path
         id="path17"
         d="m 1458.54,1080.8 c -4.24,1.33 -8.6,2.21 -12.65,2.44 -9.95,0.55 -17.28,2.39 -25.75,4.51 l -2.4,0.59 c -14.14,3.52 -23.99,3.34 -34.41,3.14 -2.29,-0.05 -4.64,-0.08 -7.05,-0.09 -4.65,-0.01 -9.62,0.12 -15.42,0.65 -2.51,0.23 -5.18,0.64 -7.9,1.17 -8.09,1.58 -16.59,4.25 -22.77,6.61 -3.74,1.43 -13.3,3.89 -22.77,6.27 l -4.62,1.18 c -8.22,2.18 -16.32,0.89 -24.15,-0.37 -3.63,-0.59 -7.06,-1.14 -10.38,-1.32 -3.87,-0.23 -7.78,0.24 -11.93,0.73 -4.77,0.57 -9.69,1.15 -14.83,0.7 -7.34,-0.67 -14.14,-1.92 -20.73,-3.15 -2.33,-0.43 -4.69,-0.87 -7.1,-1.28 -7.07,-1.22 -14.63,-1.72 -21.94,-2.17 -10.97,-0.7 -22.31,-1.43 -33.06,-4.61 -7.9,-2.34 -11.21,-5.93 -14.37,-9.41 -0.02,-0.01 -0.05,-0.03 -0.06,-0.05 -1.81,-1.98 -3.53,-3.86 -6.35,-5.75 -1.44,-0.97 -3.32,-1.34 -5.48,-1.79 -2.13,-0.42 -4.53,-0.93 -6.84,-2.1 -0.04,-0.02 -0.09,-0.03 -0.13,-0.05 -2.31,-1.2 -4.27,-3.06 -6,-4.69 -1.4,-1.32 -2.98,-2.82 -4.05,-3.21 -6.92,-2.59 -10.08,-0.64 -15.82,2.9 l -1.34,0.82 c -9.3,5.7 -12.5,7.3 -24.6,6.92 -1.58,-0.06 -3.54,-0.06 -5.69,-0.05 -5.42,-0.07 -10.4,-0.16 -14.77,-0.53 v -9.7 c 4.87,0.51 10.64,0.52 14.76,0.52 2.29,0.01 4.35,0 6.03,0.06 9.7,0.34 10.97,-0.45 19.44,-5.65 l 1.07,-0.66 c 6.06,-3.75 12.94,-8 24.34,-3.73 2.65,1 4.83,2.93 6.76,4.76 0.18,0.16 0.36,0.32 0.54,0.49 1.34,1.26 2.71,2.56 3.81,3.14 1.13,0.59 2.65,0.89 4.41,1.24 2.78,0.56 5.93,1.21 8.97,3.24 0.37,0.25 0.65,0.49 1,0.73 3.17,2.29 5.28,4.54 7.11,6.54 2.81,3.08 4.67,5.11 10.02,6.7 9.7,2.87 20,3.53 30.91,4.22 5.57,0.36 11.28,0.84 16.94,1.52 v 4 h 4.94 c 4.93,0 9.68,-0.35 14.35,-0.85 4.52,0.8 9.03,1.52 13.8,1.96 4.1,0.37 8.34,-0.14 12.81,-0.67 4.39,-0.51 8.91,-1.03 13.62,-0.79 3.83,0.21 7.66,0.83 11.38,1.43 7.14,1.14 13.9,2.23 20.12,0.57 l 4.74,-1.2 c 6.35,-1.6 18.16,-4.58 21.67,-5.92 8.73,-3.34 21.83,-7.24 32.73,-8.33 0.17,-0.02 0.35,-0.04 0.53,-0.07 8.28,-0.76 15.11,-0.72 21.21,-0.62 0.77,0.01 1.58,0.02 2.33,0.03 10.17,0.19 18.98,0.36 31.88,-2.84 l 2.37,-0.6 c 8.97,-2.24 16.71,-4.19 27.58,-4.78 5.41,-0.31 11.6,-2.11 16.9,-4.63 -1.15,3.99 -2.36,7.96 -3.71,11.88"
         style="fill:#ffffff;fill-opacity:1;fill-rule:nonzero;stroke:none"
         transform="matrix(0.13333333,0,0,-0.13333333,0,203.94667)" />
      <path
         id="path18"
         d="m 1951.66,1029.87 c -2.31,0.46 -4.65,0.93 -7.09,1.27 -9.88,1.36 -20.53,-0.33 -31.82,-2.14 -7.52,-1.21 -15.17,-2.47 -22.95,-2.81 -2.4,-0.1 -4.8,-0.14 -7.22,-0.04 -3.13,0.12 -7.17,-0.76 -12.11,-2.58 -5.55,-2.03 -12.21,-5.25 -20.14,-9.75 -6.05,-3.44 -11.76,-7.97 -16.33,-11.61 l -0.9,-0.71 c -3.24,-2.574 -6.07,-2.832 -10.74,-3.262 -1.38,-0.129 -2.81,-0.265 -4.35,-0.465 -6,-0.804 -8.09,0.016 -11.88,1.473 -1.99,0.774 -4.48,1.734 -7.85,2.584 -2.82,0.71 -5.88,1.22 -9.07,1.74 -1.84,0.31 -3.71,0.64 -5.55,1 -1.18,-0.78 -2.32,-1.59 -3.59,-2.32 -2.74,-1.64 -5.99,-2.977 -9.69,-4.078 0.62,-0.203 1.22,-0.399 1.86,-0.637 5.08,-1.847 10.32,-2.707 15.39,-3.543 2.9,-0.476 5.7,-0.941 8.26,-1.586 2.82,-0.707 4.81,-1.48 6.74,-2.215 4.39,-1.695 8.17,-3.164 16.65,-2.046 1.4,0.191 2.71,0.308 3.96,0.425 5.12,0.457 10.39,0.95 15.9,5.317 l 0.9,0.722 c 4.53,3.614 9.67,7.691 15.1,10.771 5.21,2.96 9.39,5.09 12.91,6.71 8.14,3.77 12.22,4.51 14.2,4.34 2.09,-0.04 4.14,0.02 6.21,0.09 8.86,0.28 17.48,1.55 25.84,2.88 10.52,1.7 20.48,3.3 28.92,2.12 2.27,-0.31 4.4,-0.75 6.53,-1.17 4.47,-0.91 9.06,-1.81 14.51,-1.73 0.41,3.21 0.72,6.48 0.97,9.79 -4.84,-0.22 -8.98,0.53 -13.57,1.46"
         style="fill:#ffffff;fill-opacity:1;fill-rule:nonzero;stroke:none"
         transform="matrix(0.13333333,0,0,-0.13333333,0,203.94667)" />
      <path
         id="path19"
         d="m 1713.06,1012.21 c -13.3,1.26 -27.11,0.79 -40.72,0.04 -3.22,-0.18 -6.45,-0.37 -9.63,-0.56 -3.05,-0.19 -6.06,-0.34 -9.09,-0.5 -2.76,-0.15 -5.55,-0.34 -8.29,-0.46 -2.36,-0.09 -4.8,-0.27 -7.26,-0.47 -7.65,-0.56 -15.56,-1.14 -21.62,0.8 -3.85,1.23 -7.95,3.59 -12.3,6.09 -4.58,2.64 -9.3,5.35 -14.56,7.3 -2.26,0.82 -4.27,1.63 -6.13,2.37 -0.77,0.31 -1.5,0.6 -2.23,0.89 v -10.44 c 1.55,-0.63 3.18,-1.28 5.01,-1.94 4.48,-1.65 8.84,-4.16 13.06,-6.6 4.81,-2.77 9.36,-5.38 14.2,-6.93 7.86,-2.507 16.72,-1.855 25.28,-1.21 2.37,0.18 4.7,0.35 6.96,0.45 2.6,0.1 5.26,0.28 7.88,0.43 3.23,0.17 6.43,0.33 9.68,0.53 3,0.18 6.02,0.36 9.04,0.52 13.43,0.76 27,1.23 39.81,0.02 6.97,-0.66 14.31,-0.91 23.06,-0.8 v 9.71 c -8.44,-0.11 -15.5,0.12 -22.15,0.76"
         style="fill:#ffffff;fill-opacity:1;fill-rule:nonzero;stroke:none"
         transform="matrix(0.13333333,0,0,-0.13333333,0,203.94667)" />
      <path
         id="path20"
         d="m 1809.68,872.973 c 0,0 13.03,16.152 26.35,14.453 0,0 -7.63,-14.735 -26.35,-14.453"
         style="fill:#ffffff;fill-opacity:1;fill-rule:nonzero;stroke:none"
         transform="matrix(0.13333333,0,0,-0.13333333,0,203.94667)" />
      <path
         id="path21"
         d="m 2411.84,1005.17 c 23.63,7.65 13.2,-19.803 13.2,-19.803 -14.6,-3.476 -13.2,19.803 -13.2,19.803 z M 2159.89,773.414 c 0,0 7.65,-20.851 -8.34,-19.465 0,0 -7.99,19.817 8.34,19.465 z m 223.37,398.746 c -46.19,49.2 -102.26,73.81 -168.16,73.81 -65.04,0 -120.24,-25.02 -165.57,-75.05 -45.31,-50.04 -67.98,-110.61 -67.98,-181.721 0,-68.047 23.16,-126.672 69.47,-175.883 40.21,-42.734 87.23,-66.875 141.06,-72.507 -0.41,2.843 -2.18,12.539 -7.35,12.293 0,0 -8.63,10.41 7.5,26.816 0,0 5.89,15.984 -2.09,20.848 0,0 -6.5,5.039 -5.21,9.781 -34.44,6.344 -64.72,23.531 -90.71,51.859 -33.52,36.496 -50.27,80.879 -50.27,133.157 0,49.917 17.08,92.887 51.24,128.917 34.17,36.02 74.79,54.04 121.86,54.04 2.24,0 4.39,-0.24 6.59,-0.32 1.13,7.87 3.16,15.75 6.82,21.53 0,0 14.61,43.79 18.07,30.59 0,0 8.34,-40.28 -3.47,-40.12 0,0 -13.57,5.01 -12.17,-10.63 l -0.57,-1.79 c 41.18,-3.52 76.74,-21.35 106.61,-53.65 0.3,-0.34 0.55,-0.69 0.85,-1.02 4.82,4 12.2,6.89 16.82,-7.02 0,0 2.06,-8.02 2.35,-17.77 2.87,-4.38 5.48,-8.88 7.94,-13.45 1.11,3.34 3.45,12.45 2.91,29.05 0,0 5.56,8.21 5.56,-7.36 0,0 0.26,-24.72 -4.18,-30.12 11.91,-25.24 18,-53.1 18,-83.702 0,-51.343 -16.81,-95.015 -50.43,-131.035 -33.61,-36.031 -74.61,-54.043 -123.01,-54.043 -4.28,0 -8.44,0.324 -12.61,0.617 1.91,-1.984 4.04,-4.41 6.47,-7.511 0,0 2.74,-5.899 -7.49,-5.555 0,0 -2.97,-8.703 0,-19.816 0,0 -0.01,-6.602 -4.78,-7.293 0,0 -6.15,-13.321 2.88,-15 0,0 10.2,-5.266 10.59,-13.45 2.08,-0.054 4.15,-0.148 6.25,-0.148 64.82,0 120.28,24.769 166.39,74.344 46.09,49.554 69.14,109.183 69.14,178.89 0,70.392 -23.11,130.202 -69.32,179.422"
         style="fill:#729bc7;fill-opacity:1;fill-rule:nonzero;stroke:none"
         transform="matrix(0.13333333,0,0,-0.13333333,0,203.94667)" />
      <path
         id="path22"
         d="m 2122.79,994.148 c 0,27.312 9.31,50.802 27.91,70.462 18.62,19.65 40.74,29.49 66.35,29.49 12.69,0 24.46,-2.41 35.35,-7.17 0.32,4.5 2.31,25.65 10.71,16 0,0 1.69,-10.47 1.44,-22.65 6.65,-4.3 12.97,-9.51 18.86,-15.85 18.39,-19.78 27.59,-43.67 27.59,-71.692 0,-28.261 -9.2,-52.226 -27.59,-71.879 -18.39,-19.66 -40.73,-29.488 -67,-29.488 -4.91,0 -9.63,0.469 -14.25,1.184 2.72,-18.707 -9.6,-43.653 -9.6,-43.653 -12.51,-15.988 -3.48,11.817 -3.48,11.817 6.34,9.519 6.99,29.48 7.06,32.914 -17.46,3.949 -32.83,13.16 -46.08,27.758 -18.19,20.004 -27.27,44.257 -27.27,72.757 z m 193.83,-23.382 c 9.74,1.738 5.56,-14.246 5.56,-14.246 5.55,0.339 4.17,-21.543 4.17,-21.543 v -30.579 c -1.39,-20.847 -9.54,-18.074 -9.54,-18.074 v 50.742 c 13.38,14.598 -0.19,19.11 -0.19,19.11 1.74,11.125 -9.03,7.988 -9.03,7.988 4.52,1.387 9.03,6.602 9.03,6.602 z m 28.15,69.164 c 0,0 8.69,3.13 7.99,-20.68 0,0 1.38,-20.328 -7.99,-20.68 0,0 5.55,27.46 0,41.36 z M 2117.64,865.766 c 28.5,-26.176 61.62,-39.379 99.41,-39.379 21.05,0 40.58,3.984 58.59,11.879 -0.43,0.429 -0.71,0.812 -0.71,0.812 0,6.942 -3.83,8.34 -3.83,8.34 -3.13,2.43 0,30.586 0,30.586 3.48,4.519 2.79,-5.566 2.79,-5.566 0.69,-6.262 1.39,-17.375 1.39,-17.375 2.79,0 5.56,-6.25 5.56,-6.25 0.08,-3.844 -0.15,-6.454 -0.54,-8.262 16.71,8.082 32.12,19.496 46.14,34.57 30.22,32.492 45.33,71.699 45.33,117.617 0,46.382 -15.17,85.702 -45.5,117.962 -27.82,29.59 -61.2,45.45 -100,47.89 l -3.46,-10.98 c 0,0 -0.4,4.57 -0.41,11.16 -2.22,0.09 -4.39,0.32 -6.66,0.32 -42.69,0 -78.94,-16.42 -108.71,-49.27 -29.78,-32.85 -44.67,-72.59 -44.67,-119.199 0,-44.742 15.27,-83.301 45.82,-115.676 2.17,-2.3 4.44,-4.332 6.66,-6.468 -0.85,7.476 -1.57,22.816 6.83,23.082 0,0 28.68,-6.989 -4.03,-25.793"
         style="fill:#729bc7;fill-opacity:1;fill-rule:nonzero;stroke:none"
         transform="matrix(0.13333333,0,0,-0.13333333,0,203.94667)" />
      <path
         id="path23"
         d="m 2425.04,985.367 c -14.61,-3.476 -13.2,19.803 -13.2,19.803 23.63,7.65 13.2,-19.803 13.2,-19.803 z m -98.69,-50.39 v -30.579 c -1.39,-20.847 -9.55,-18.074 -9.55,-18.074 v 50.742 c 13.39,14.598 -0.18,19.11 -0.18,19.11 1.74,11.125 -9.04,7.988 -9.04,7.988 4.53,1.387 9.04,6.602 9.04,6.602 9.73,1.738 5.55,-14.246 5.55,-14.246 5.56,0.339 4.18,-21.543 4.18,-21.543 z m -51.43,-95.899 c 0,6.942 -3.83,8.34 -3.83,8.34 -3.12,2.43 0,30.586 0,30.586 3.48,4.519 2.8,-5.566 2.8,-5.566 0.68,-6.262 1.38,-17.375 1.38,-17.375 2.8,0 5.57,-6.25 5.57,-6.25 0.35,-18.418 -5.92,-9.735 -5.92,-9.735 z m -123.38,-85.129 c 0,0 -7.99,19.817 8.34,19.465 0,0 7.66,-20.851 -8.34,-19.465 z m -36.13,110.508 c 0,0 -4.86,26.75 6.25,27.102 0,0 30.23,-7.286 -6.25,-27.102 z m 336.97,137.803 c -1.35,1.24 0.65,2.67 -3.36,3.22 -13.28,1.84 -16.03,-1.28 -27.52,1.45 -4.76,1.12 -10.07,7.86 -15.43,10.25 -3.45,1.53 -7.65,3.23 -11.93,4.06 -12.03,2.31 -23.07,3.18 -34.3,6.62 -2.32,0.7 -4.91,1.32 -7.54,1.89 0.39,-2.73 0.58,-6.16 0.45,-10.5 0,0 1.39,-20.328 -7.98,-20.68 0,0 3.62,17.96 2.07,32.18 -8.46,1.41 -17.51,2.06 -25.32,1.18 -6.07,-0.69 -10.74,-3.5 -15.37,-6.46 3.17,-10.22 4.85,-21.09 4.85,-32.732 0,-28.258 -9.2,-52.226 -27.6,-71.879 -18.38,-19.664 -40.72,-29.488 -66.99,-29.488 -4.92,0 -9.63,0.469 -14.26,1.184 2.73,-18.707 -9.59,-43.653 -9.59,-43.653 -12.52,-15.988 -3.48,11.817 -3.48,11.817 6.33,9.519 6.99,29.476 7.05,32.914 -17.46,3.949 -32.83,13.152 -46.07,27.758 -16.7,18.371 -25.63,40.363 -26.99,65.879 -12.29,-3.379 -19.75,3.578 -31.7,7.984 -7.8,2.875 -8.48,3.5 -16.76,5.196 -6.21,1.26 -17.93,1.3 -25.96,3.88 -12.58,10.07 -16.64,10.36 -24.74,14.44 -16,8.07 -25.61,10.29 -39.95,9.45 -1.62,-12.64 -2.42,-25.64 -2.42,-39.017 0,-68.051 23.17,-126.676 69.48,-175.894 40.2,-42.723 87.23,-66.864 141.05,-72.493 -0.41,2.836 -2.17,12.532 -7.34,12.286 0,0 -8.64,10.41 7.5,26.816 0,0 5.89,15.984 -2.09,20.848 0,0 -12.17,9.394 0,14.601 0,0 4.16,4.863 19.45,-14.601 0,0 2.75,-5.899 -7.48,-5.555 0,0 -2.97,-8.703 0,-19.816 0,0 -0.02,-6.602 -4.79,-7.293 0,0 -6.15,-13.321 2.89,-15 0,0 10.19,-5.266 10.59,-13.45 2.08,-0.054 4.14,-0.148 6.25,-0.148 64.82,0 120.27,24.773 166.39,74.34 46.09,49.562 69.14,109.191 69.14,178.894 0,3.2 -0.1,6.352 -0.2,9.522"
         style="fill:#e86d1f;fill-opacity:1;fill-rule:nonzero;stroke:none"
         transform="matrix(0.13333333,0,0,-0.13333333,0,203.94667)" />
      <path
         id="path24"
         d="m 2452.05,1009.73 c -0.7,0.25 -1.48,0.44 -2.37,0.56 -6.65,0.92 -10.89,0.69 -14.62,0.48 -3.93,-0.23 -7.01,-0.41 -12.42,0.89 -1.49,0.34 -3.97,2.39 -6.18,4.2 -2.62,2.16 -5.35,4.39 -8.41,5.76 -3.46,1.54 -8.07,3.43 -12.99,4.38 -2.96,0.58 -5.8,1.02 -8.66,1.47 -1.09,0.16 -2.22,0.39 -3.3,0.56 -5.23,0.81 -10.25,1.61 -15.21,2.75 -2.23,0.5 -4.43,1.04 -6.64,1.72 -12.79,3.9 -28.62,5.57 -40.27,4.26 -6.67,-0.76 -11.68,-3.57 -16.39,-6.54 1.14,-3.13 2.13,-6.33 2.97,-9.6 0.11,0.08 0.23,0.16 0.35,0.22 4.73,3.04 8.83,5.67 14.16,6.27 10.47,1.17 24.73,-0.35 36.35,-3.9 3.81,-1.16 7.52,-2.03 11.25,-2.76 3.93,-0.77 7.87,-1.39 11.93,-2.02 2.03,-0.32 4.12,-0.7 6.17,-1.04 1.82,-0.3 3.6,-0.57 5.43,-0.92 3.97,-0.77 7.91,-2.39 10.9,-3.72 1.86,-0.83 4.06,-2.64 6.2,-4.39 3.15,-2.6 6.42,-5.28 10.09,-6.15 6.8,-1.62 11.07,-1.37 15.21,-1.14 3.19,0.17 6.47,0.36 11.92,-0.32 0.82,-1.855 2.5,-3.137 4.98,-3.934 -0.06,4.354 -0.22,8.654 -0.45,12.914"
         style="fill:#ffffff;fill-opacity:1;fill-rule:nonzero;stroke:none"
         transform="matrix(0.13333333,0,0,-0.13333333,0,203.94667)" />
      <path
         id="path25"
         d="m 2122.87,992.227 c -7.76,-2.551 -12.91,-0.157 -20.35,3.425 -2.93,1.414 -5.96,2.868 -9.47,4.168 l -3.9,1.47 c -4.52,1.71 -6.57,2.49 -13.58,3.92 -2.59,0.52 -5.9,0.84 -9.4,1.18 -1.02,0.1 -2.09,0.21 -3.15,0.31 -4.21,0.44 -8.56,1 -12.06,2.01 -2.34,1.84 -4.39,3.36 -6.24,4.64 -5.66,3.91 -9.41,5.58 -13.33,7.3 -1.65,0.73 -3.34,1.48 -5.3,2.46 -16.54,8.34 -26.68,10.78 -41.4,10.03 -0.46,-3.26 -0.89,-6.53 -1.25,-9.84 14,0.91 22.97,-1.14 38.3,-8.87 2.1,-1.05 3.94,-1.87 5.72,-2.66 4.65,-2.05 8.75,-3.9 16.63,-10.04 0.51,-0.4 0.99,-0.75 1.52,-1.19 l 0.7,-0.56 0.85,-0.273 c 4.69,-1.508 10.24,-2.191 15.46,-2.719 0.88,-0.09 1.75,-0.183 2.61,-0.265 3.25,-0.309 6.3,-0.606 8.4,-1.035 6.23,-1.266 7.71,-1.825 12.06,-3.485 l 4.02,-1.504 c 3.06,-1.129 5.87,-2.48 8.59,-3.797 7.32,-3.519 14.9,-7.136 25.1,-4.656 -0.31,3.266 -0.48,6.598 -0.53,9.981"
         style="fill:#ffffff;fill-opacity:1;fill-rule:nonzero;stroke:none"
         transform="matrix(0.13333333,0,0,-0.13333333,0,203.94667)" />
      <path
         id="path26"
         d="m 2647.36,919.723 c -8.63,-0.051 -16.72,0.34 -23.06,4.718 -11.76,8.125 -25.85,23.946 -29.2,30.348 -0.96,5.246 -5.42,11.391 -11.12,18.781 -1.8,2.344 -3.43,4.442 -4.39,6 -4.16,6.754 -13.84,11.723 -28.74,14.789 l -2.03,0.403 -0.32,0.078 c -7.93,1.601 -12.59,2.578 -18.91,6.62 -0.51,0.33 -1.01,0.63 -1.54,1 -12.47,8.62 -18.32,8.84 -33.34,8.2 -3.62,-0.15 -8.91,-1.09 -15.04,-2.16 -5.82,-1.02 -13.77,-2.41 -19.29,-2.68 -0.15,-3.21 -0.19,-6.468 -0.22,-9.73 5.48,0.187 12.59,1.34 21.19,2.851 5.54,0.969 10.79,1.899 13.77,2.019 13.36,0.57 16.98,0.72 27.41,-6.491 2.47,-1.699 4.72,-2.996 6.9,-4.059 5.65,-2.754 10.76,-3.808 17.15,-5.097 l 2.31,-0.465 c 0.03,-0.004 0.04,-0.004 0.05,-0.008 11.65,-2.402 19.79,-6.18 22.39,-10.375 1.15,-1.875 2.91,-4.172 4.96,-6.82 3.36,-4.36 8.98,-11.661 9.28,-14.762 l 0.43,-1.586 c 3.71,-8.051 19.57,-25.711 32.79,-34.844 9.72,-6.707 21.62,-6.551 32.09,-6.41 2.85,0.039 5.56,0.074 8.17,0 -4.03,2.895 -7.94,6.109 -11.69,9.68"
         style="fill:#ffffff;fill-opacity:1;fill-rule:nonzero;stroke:none"
         transform="matrix(0.13333333,0,0,-0.13333333,0,203.94667)" />
      <path
         id="path27"
         d="m 2530.84,967.188 c 0,0 11.25,17.031 3.12,32.109 0,0 12.82,-7.5 12.5,-16.055 0,0 -1.56,-21.367 -15.62,-16.054"
         style="fill:#ffffff;fill-opacity:1;fill-rule:nonzero;stroke:none"
         transform="matrix(0.13333333,0,0,-0.13333333,0,203.94667)" />
      <path
         id="path28"
         d="m 3103.73,1079.57 64.69,56.03 -64.94,-55.74 z"
         style="fill:#729bc7;fill-opacity:1;fill-rule:nonzero;stroke:none"
         transform="matrix(0.13333333,0,0,-0.13333333,0,203.94667)" />
      <path
         id="path29"
         d="m 3051.62,1034.85 11.72,9.67 -11.72,-9.67"
         style="fill:#729bc7;fill-opacity:1;fill-rule:nonzero;stroke:none"
         transform="matrix(0.13333333,0,0,-0.13333333,0,203.94667)" />
      <path
         id="path30"
         d="M 3080.4,965.477 3195.91,825.375 3080.4,965.477"
         style="fill:#729bc7;fill-opacity:1;fill-rule:nonzero;stroke:none"
         transform="matrix(0.13333333,0,0,-0.13333333,0,203.94667)" />
      <path
         id="path31"
         d="m 3210.49,838.805 -115.45,139.55 115.45,-139.55"
         style="fill:#729bc7;fill-opacity:1;fill-rule:nonzero;stroke:none"
         transform="matrix(0.13333333,0,0,-0.13333333,0,203.94667)" />
      <path
         id="path32"
         d="m 3091.28,1094.61 0.51,-0.63 63.95,55.27 z"
         style="fill:#729bc7;fill-opacity:1;fill-rule:nonzero;stroke:none"
         transform="matrix(0.13333333,0,0,-0.13333333,0,203.94667)" />
      <path
         id="path33"
         d="m 3051.62,1030.82 43.42,-52.461 -43.42,52.461"
         style="fill:#729bc7;fill-opacity:1;fill-rule:nonzero;stroke:none"
         transform="matrix(0.13333333,0,0,-0.13333333,0,203.94667)" />
      <path
         id="path34"
         d="m 3051.62,1034.85 11.72,9.67 -11.72,-9.67"
         style="fill:#729bc7;fill-opacity:1;fill-rule:nonzero;stroke:none"
         transform="matrix(0.13333333,0,0,-0.13333333,0,203.94667)" />
      <path
         id="path35"
         d="m 3063.33,1044.53 40.4,35.04 -0.25,0.29 z"
         style="fill:#729bc7;fill-opacity:1;fill-rule:nonzero;stroke:none"
         transform="matrix(0.13333333,0,0,-0.13333333,0,203.94667)" />
      <path
         id="path36"
         d="m 3051.62,1000.38 v 0 l 28.78,-34.896 z"
         style="fill:#729bc7;fill-opacity:1;fill-rule:nonzero;stroke:none"
         transform="matrix(0.13333333,0,0,-0.13333333,0,203.94667)" />
      <path
         id="path37"
         d="m 3017.93,1005.31 17.14,15.14 v 0 z"
         style="fill:#729bc7;fill-opacity:1;fill-rule:nonzero;stroke:none"
         transform="matrix(0.13333333,0,0,-0.13333333,0,203.94667)" />
      <path
         id="path38"
         d="m 3049.64,1033.21 v 0.01"
         style="fill:#729bc7;fill-opacity:1;fill-rule:nonzero;stroke:none"
         transform="matrix(0.13333333,0,0,-0.13333333,0,203.94667)" />
      <path
         id="path39"
         d="m 3051.62,1034.85 v 0 l -1.97,-1.63 v -0.01 l 1.97,1.64"
         style="fill:#729bc7;fill-opacity:1;fill-rule:nonzero;stroke:none"
         transform="matrix(0.13333333,0,0,-0.13333333,0,203.94667)" />
      <path
         id="path40"
         d="m 3049.64,1033.21 v 0.01 -0.01"
         style="fill:#729bc7;fill-opacity:1;fill-rule:nonzero;stroke:none"
         transform="matrix(0.13333333,0,0,-0.13333333,0,203.94667)" />
      <path
         id="path41"
         d="m 3051.62,1030.82 v 4.03 l -1.97,-1.64 z"
         style="fill:#729bc7;fill-opacity:1;fill-rule:nonzero;stroke:none"
         transform="matrix(0.13333333,0,0,-0.13333333,0,203.94667)" />
      <path
         id="path42"
         d="m 3049.64,1033.21 1.98,-2.39 -1.98,2.39"
         style="fill:#729bc7;fill-opacity:1;fill-rule:nonzero;stroke:none"
         transform="matrix(0.13333333,0,0,-0.13333333,0,203.94667)" />
      <path
         id="path43"
         d="m 3049.64,1033.21 1.98,1.64"
         style="fill:#729bc7;fill-opacity:1;fill-rule:nonzero;stroke:none"
         transform="matrix(0.13333333,0,0,-0.13333333,0,203.94667)" />
      <path
         id="path44"
         d="m 3051.62,1000.38 v 0 l -16.54,20.07 z"
         style="fill:#729bc7;fill-opacity:1;fill-rule:nonzero;stroke:none"
         transform="matrix(0.13333333,0,0,-0.13333333,0,203.94667)" />
      <path
         id="path45"
         d="m 2985.96,977.09 v 0 l 31.96,28.22 z"
         style="fill:#729bc7;fill-opacity:1;fill-rule:nonzero;stroke:none"
         transform="matrix(0.13333333,0,0,-0.13333333,0,203.94667)" />
      <path
         id="path46"
         d="m 3265.36,884.199 -12.08,14.61 c -25.21,11.726 -42.28,19.433 -48.89,19.714 -13.25,0.567 -14.92,1.012 -25.56,6.852 -6.08,3.313 -17.96,7.539 -29.48,11.621 -9.66,3.434 -19.66,6.988 -24.45,9.418 -2.45,1.25 -4.36,2.492 -6.03,3.574 -0.26,0.172 -0.49,0.313 -0.75,0.469 -6.42,4.09 -11.3,6.121 -22.8,0.574 -0.79,-0.371 -1.49,-0.703 -2.18,-1.023 -6.11,-2.86 -8.59,-3.352 -16.01,-3.352 -0.57,0 -1.24,0.004 -1.8,0.004 -8.12,0 -12.56,-2.781 -17.24,-5.738 -2.43,-1.531 -4.93,-3.106 -8.4,-4.676 -4.56,-2.062 -7.01,-3.488 -10.43,-5.465 l -1.8,-1.039 c -0.49,-0.273 -1.17,-0.461 -1.89,-0.703 -2.08,-0.699 -4.67,-1.562 -6.33,-3.242 -0.8,-0.641 -4.49,-2.652 -6.26,-3.621 -2.7,-1.469 -3.29,-1.801 -3.88,-2.297 -1.23,-1.066 -2.26,-2.008 -3.15,-2.828 -3.33,-3.059 -4.08,-3.735 -8.59,-3.844 -0.23,0.719 -0.43,1.402 -0.62,2.082 -1.37,4.758 -2.8,9.691 -9.39,14.461 -2.86,2.063 -5.79,3.398 -8.62,4.707 -0.96,0.434 -1.86,0.871 -2.77,1.324 -1.42,0.688 -2.8,1.422 -4.02,2.293 -2.1,1.512 -4.07,2.996 -5.96,4.426 -3.3,2.488 -6.47,4.848 -9.81,6.922 -6.88,4.308 -14.51,7.351 -25.74,7.351 h -0.2 c -5.78,-0.019 -10.48,-1.199 -15.03,-2.343 -3.29,-0.817 -6.37,-1.602 -9.89,-1.953 l -2.51,-0.282 c -3.33,-0.394 -8.36,-0.968 -10.87,-0.441 -1.39,0.305 -2.66,1.195 -4.01,2.129 -0.3,0.222 -0.65,0.422 -0.97,0.637 v -11.153 c 0.93,-0.41 1.82,-0.851 2.93,-1.101 4.08,-0.887 9.59,-0.239 14.05,0.281 l 2.36,0.269 c 4.22,0.43 7.8,1.325 11.28,2.192 4.17,1.055 8.09,2.043 12.69,2.058 h 0.15 c 11.48,0 18.15,-3.804 25.76,-9.367 1.29,-0.941 2.6,-1.914 3.96,-2.941 1.94,-1.481 3.98,-3.016 6.17,-4.586 2.76,-1.965 5.61,-3.274 8.39,-4.543 0.43,-0.203 0.84,-0.41 1.27,-0.602 2.03,-0.949 3.99,-1.906 5.71,-3.144 3.88,-2.805 4.54,-5.11 5.73,-9.285 0.54,-1.856 1.12,-3.848 2,-6.059 l 1.21,-3.031 3.26,-0.028 c 11.11,-0.066 13.37,1.586 18.63,6.407 0.84,0.773 1.8,1.64 2.56,2.336 0.39,0.246 1.38,0.785 2.57,1.433 5.16,2.817 7.21,4.016 8.24,5.059 0.42,0.332 1.89,0.82 2.78,1.113 1.39,0.465 2.7,0.942 3.63,1.481 l 1.85,1.074 c 3.4,1.969 5.45,3.152 9.54,5.008 4.1,1.855 7.01,3.687 9.59,5.312 4.4,2.766 6.57,4.211 12.23,4.25 11.21,-0.18 14.3,0.613 24.03,5.328 0.01,0 0.01,0.004 0.03,0.004 7.66,3.695 8.89,2.899 14.04,-0.449 1.92,-1.234 4.1,-2.648 6.91,-4.078 2.96,-1.5 7.32,-3.246 12.37,-5.129 4.08,-1.527 8.59,-3.133 13.24,-4.777 11.15,-3.961 22.68,-8.055 28.05,-10.993 11.87,-6.511 15.21,-7.41 29.82,-8.035 5.31,-0.234 30.24,-11.847 46.73,-19.527 6.54,-3.047 12.14,-5.656 16.88,-7.793 l -2.23,2.695"
         style="fill:#ffffff;fill-opacity:1;fill-rule:nonzero;stroke:none"
         transform="matrix(0.13333333,0,0,-0.13333333,0,203.94667)" />
      <path
         id="path47"
         d="m 427.191,490.602 h -11.207 l -33.972,56.566 c -10.117,-1.934 -21.035,-2.926 -32.766,-2.926 h -22.242 v -53.64 h -9.152 v 179.011 h 35.531 c 16.32,0 29.465,-1.777 39.41,-5.34 9.941,-3.57 18.59,-9.429 25.945,-17.593 9.891,-10.918 14.832,-24.828 14.832,-41.735 0,-27.015 -13.847,-45.355 -41.558,-55.015 z m 10,49.511 c 7.86,6.649 13.754,12.641 17.907,18.055 l -1.66,21.926 c 0,0 6.449,1.133 10.792,-5.715 3.918,9.547 6.075,20.062 6.075,31.777 0,13.106 -3.137,26.035 -9.403,38.793 -6.261,12.774 -14.636,23.336 -25.089,31.735 -17.708,14.14 -41.043,21.207 -70.016,21.207 H 282.512 V 462.34 h 75.179 v 57.941 l 38.114,-57.941 h 85.539 l -44.153,77.773"
         style="fill:#e86d1f;fill-opacity:1;fill-rule:nonzero;stroke:none"
         transform="matrix(0.13333333,0,0,-0.13333333,0,203.94667)" />
      <path
         id="path48"
         d="m 379.605,585.977 c -4.039,-2.418 -10.187,-3.625 -18.46,-3.625 h -3.454 v 51.91 h 3.454 c 8.05,0 14.199,-1.149 18.46,-3.446 8.497,-4.714 12.75,-12.238 12.75,-22.593 0,-10.004 -4.253,-17.418 -12.75,-22.246 z m 23.27,63.461 c -9.652,6.789 -20.348,10.582 -32.074,11.382 -3.684,0.227 -9.379,0.34 -17.074,0.34 H 327.004 V 552.348 h 20.176 c 29.422,0 50.004,5.402 61.726,16.215 10.356,9.656 15.528,21.777 15.528,36.382 0,19.66 -7.2,34.489 -21.559,44.493"
         style="fill:#e86d1f;fill-opacity:1;fill-rule:nonzero;stroke:none"
         transform="matrix(0.13333333,0,0,-0.13333333,0,203.94667)" />
      <path
         id="path49"
         d="m 648.301,550.629 c 0,-19.551 -5.68,-35.207 -17.063,-47 -11.39,-11.777 -26.508,-17.66 -45.355,-17.66 -18.969,0 -34.141,5.883 -45.524,17.66 -0.129,0.133 -0.214,0.301 -0.339,0.441 -6.536,-4.629 -18.204,-11.949 -21.094,-7.281 0,0 7.637,8.859 14.629,15.563 -6.785,10.457 -10.262,23.179 -10.262,38.277 v 118.984 h 9.652 V 550.629 c 0,-16.899 4.852,-30.559 14.571,-40.957 9.707,-10.402 22.507,-15.602 38.367,-15.602 15.863,0 28.648,5.2 38.371,15.602 9.707,10.398 14.574,24.058 14.574,40.957 v 118.984 h 9.473 z M 604.504,697.891 V 562.008 c 0,-24.024 -6.203,-36.039 -18.621,-36.039 -12.531,0 -18.793,12.015 -18.793,36.039 V 697.891 H 488.105 V 544.598 c 0,-25.77 9.145,-46.907 27.426,-63.457 18.274,-16.563 41.727,-24.84 70.352,-24.84 28.625,0 52.082,8.277 70.355,24.84 18.282,16.55 27.418,37.687 27.418,63.457 v 153.293 h -79.152"
         style="fill:#e86d1f;fill-opacity:1;fill-rule:nonzero;stroke:none"
         transform="matrix(0.13333333,0,0,-0.13333333,0,203.94667)" />
      <path
         id="path50"
         d="m 871.996,697.895 1.652,-18.594 c 20,3.125 35.301,-7.188 35.301,-7.188 L 876.625,649.77 V 490.602 h -0.023 c 0.441,-0.774 0.824,-1.614 1.109,-2.524 v -16.406 c 0,0 -6.012,6.238 -8.816,18.93 h -1.586 l -116.391,162.8 v -162.8 h -9.656 v 179.015 h 9.656 L 867.309,506.828 v 46.707 c -2.817,6.012 -1.004,20.485 -1.004,20.485 0.148,2.652 0.527,4.503 1.004,5.832 v 68.07 l -31.727,23.375 V 607.191 L 770.57,697.895 H 708.492 V 488.621 c 17.817,2.039 3.903,-19.672 0,-25.312 v -0.981 h 74.149 v 90.371 l 64.668,-90.371 h 62.421 v 235.567 h -37.734"
         style="fill:#e86d1f;fill-opacity:1;fill-rule:nonzero;stroke:none"
         transform="matrix(0.13333333,0,0,-0.13333333,0,203.94667)" />
      <path
         id="path51"
         d="m 1104.64,697.895 c 0.17,-1.383 3.95,-32.067 -0.9,-46.071 v -32.015 c 1.77,-3.934 3.38,-10.528 3.38,-22.086 0,0 1.84,-32.325 -3.38,-34.719 v -72.402 h -9.32 L 979.078,651.934 c -0.305,-0.11 -0.687,-0.18 -1.051,-0.262 v -161.07 h -9.664 v 162.171 c -5.8,1.899 -11.953,5.79 -2.57,12.997 l 0.937,0.957 v 10.918 c 0,0 -6.535,9.804 -5.312,20.25 H 935.602 V 462.328 h 74.148 v 90.371 l 64.67,-90.371 h 41.14 c 4.37,36.25 10.78,0 10.78,0 h 10.51 v 235.567 h -32.21"
         style="fill:#e86d1f;fill-opacity:1;fill-rule:nonzero;stroke:none"
         transform="matrix(0.13333333,0,0,-0.13333333,0,203.94667)" />
      <path
         id="path52"
         d="m 977.668,671.395 v -1.778 h 0.359 L 1094.42,506.828 v 134.117 c -1.09,1.707 -2.31,4.098 -3.71,7.563 0,0 -10.4,34.469 -8.29,49.387 h -19.73 v -90.704 l -65.002,90.704 h -20.02 v -26.5"
         style="fill:#e86d1f;fill-opacity:1;fill-rule:nonzero;stroke:none"
         transform="matrix(0.13333333,0,0,-0.13333333,0,203.94667)" />
      <path
         id="path53"
         d="m 1458.32,653.914 c 0,0 9.19,8.836 18.1,-3.504 v 47.485 h -74.15 v -90.707 l -65.01,90.707 h -62.08 V 573.316 c 7.84,6.633 29.33,18.106 32.76,19.922 v 76.371 h 9.66 L 1434,506.828 v 162.781 h 9.31 V 490.602 H 1434 l -116.4,162.8 v -162.8 h -9.66 v 40.578 h -6.8 l 0.21,19.894 -1.02,10.145 c -3.25,7.715 -14.41,0 -14.41,0 h -10.74 v -98.891 h 21.62 c 0.4,5.293 2.78,28.231 12.71,14.344 0,0 3.6,-7.66 3.11,-14.344 h 36.71 v 90.367 l 64.66,-90.367 h 62.43 v 178.86 c -3.59,-0.598 -19.54,-2.422 -18.1,12.726"
         style="fill:#e86d1f;fill-opacity:1;fill-rule:nonzero;stroke:none"
         transform="matrix(0.13333333,0,0,-0.13333333,0,203.94667)" />
      <path
         id="path54"
         d="m 1681.95,531.488 c -17.32,-27.937 -41.06,-41.898 -71.21,-41.898 -23.3,0 -43.22,8.808 -59.73,26.461 -16.52,17.644 -24.78,38.937 -24.78,63.887 0,25.062 8.26,46.453 24.78,64.152 16.51,17.703 36.53,26.558 60.05,26.558 10.8,0 21.4,-2.359 31.76,-7.07 l -4.49,-8.105 c -9.61,3.793 -18.82,5.687 -27.59,5.687 -20.84,0 -38.65,-7.93 -53.4,-23.797 -14.76,-15.859 -22.14,-35 -22.14,-57.425 0,-22.418 7.38,-41.555 22.14,-57.426 14.75,-15.852 32.56,-23.793 53.4,-23.793 25.87,0 46.67,11.89 62.39,35.703 v 35.008 h -26.3 v 8.445 h 35.12 z m -54.85,67.602 v -49.5 h 19.73 c -9.84,-12.766 -21.86,-19.141 -36.09,-19.141 -12.73,0 -23.57,4.852 -32.56,14.574 -8.97,9.711 -13.47,21.348 -13.47,34.915 0,13.8 4.52,25.496 13.56,35.101 9.03,9.594 19.97,14.395 32.79,14.395 10.59,0 20.32,-3.911 29.19,-11.731 l 39.46,61.047 c -8.03,6.094 -14.92,10.57 -20.69,13.453 -14.97,7.586 -31.17,11.379 -48.6,11.379 -31.54,0 -58.54,-12.098 -80.99,-36.301 -22.45,-24.199 -33.66,-53.316 -33.66,-87.343 0,-34.024 11.21,-63.137 33.66,-87.336 22.45,-24.204 49.55,-36.313 81.31,-36.313 18.39,0 35.33,4.512 51.02,13.02 -0.02,6.543 -8.61,12.23 -8.61,12.23 -8.48,8.652 6.05,16.961 6.05,16.961 13.68,14.359 16.79,-4.328 16.79,-4.328 1.01,-4.051 11.23,-3.152 14.6,-2.742 7.93,8.41 14.96,18.05 20.87,29.191 v 78.469 h -84.36"
         style="fill:#e86d1f;fill-opacity:1;fill-rule:nonzero;stroke:none"
         transform="matrix(0.13333333,0,0,-0.13333333,0,203.94667)" />
      <path
         id="path55"
         d="m 1857.01,515.969 c -18.11,17.59 -27.19,38.91 -27.19,63.969 0,25.066 9.08,46.453 27.19,64.152 18.13,17.703 40.02,26.558 65.67,26.558 11.12,0 23.94,-2.816 38.49,-8.445 l -3.85,-8.453 c -11.65,4.945 -23.4,7.41 -35.29,7.41 -22.75,0 -42.25,-7.93 -58.44,-23.797 -16.21,-15.859 -24.31,-35.004 -24.31,-57.425 0,-22.649 8.13,-41.836 24.39,-57.598 16.25,-15.75 36.08,-23.621 59.49,-23.621 14,0 26.79,3.152 38.32,9.48 l 4.66,-8.097 c -13.8,-7.024 -28.11,-10.512 -42.98,-10.512 -25.97,0 -48.02,8.769 -66.15,26.379 z m 108.18,34.66 c -8.21,-7.828 -16.51,-13.305 -24.9,-16.578 -2.86,-5.141 -13.6,-22.903 -15.63,-3.449 -0.87,-0.051 -1.75,-0.153 -2.63,-0.153 -13.78,0 -25.59,4.852 -35.43,14.574 -9.83,9.711 -14.76,21.356 -14.76,34.915 0,13.574 4.93,25.207 14.76,34.914 9.84,9.722 21.53,14.582 35.11,14.582 17.01,0 30.7,-6.039 41.06,-18.102 l 35.93,67.074 c -23.09,16.793 -48.53,25.176 -76.35,25.176 -13.76,0 -26.69,-1.937 -38.85,-5.668 -0.62,-0.605 -9.67,-9.644 -5.14,-13.418 0,0 24.69,-3.125 30.31,-8.281 v -1.563 h -35.94 c 0,0 -1.87,4.532 -7.81,4.532 l -17.23,0.605 c -5.08,-3.719 -10.03,-7.738 -14.74,-12.332 -24.64,-24.082 -36.96,-53.258 -36.96,-87.519 0,-34.141 12.35,-63.278 37.05,-87.426 24.69,-24.141 54.47,-36.223 89.31,-36.223 28.99,0 56.15,9.66 81.5,28.973 l -38.66,65.367"
         style="fill:#e86d1f;fill-opacity:1;fill-rule:nonzero;stroke:none"
         transform="matrix(0.13333333,0,0,-0.13333333,0,203.94667)" />
      <path
         id="path56"
         d="m 2133.46,544.848 c -8.99,-9.594 -19.89,-14.403 -32.71,-14.403 -12.72,0 -23.52,4.891 -32.41,14.657 -8.87,9.777 -13.32,21.617 -13.32,35.523 0,13.34 4.57,24.809 13.65,34.414 9.08,9.59 19.88,14.395 32.38,14.395 12.62,0 23.42,-4.829 32.41,-14.489 8.98,-9.648 13.46,-21.332 13.46,-35.007 0,-13.79 -4.48,-25.497 -13.46,-35.09 z m -65.65,-36.418 c 0,0 -7.81,34.058 9.38,27.496 0,0 4.06,-12.817 -9.38,-27.496 z m 86.58,129.109 c -14.8,15.742 -32.81,23.621 -53.96,23.621 -20.85,0 -38.55,-8.019 -53.09,-24.055 -14.55,-16.042 -21.81,-35.433 -21.81,-58.203 0,-21.851 7.46,-40.656 22.37,-56.472 14.91,-15.801 32.64,-23.711 53.15,-23.711 20.86,0 38.66,7.941 53.42,23.801 14.75,15.863 22.12,35 22.12,57.418 0,18.191 -4.85,34.125 -14.4,47.863 v -14.688 c 0,0 -4.69,-6.875 -5.32,5.938 v 15.597 c -0.83,0.961 -1.6,1.954 -2.48,2.891"
         style="fill:#e86d1f;fill-opacity:1;fill-rule:nonzero;stroke:none"
         transform="matrix(0.13333333,0,0,-0.13333333,0,203.94667)" />
      <path
         id="path57"
         d="m 2182.23,667.543 c -6.29,6.699 -13,12.363 -20.04,17.191 v -42.57 c 15.21,-17.324 22.92,-38.055 22.92,-62.226 0,-25.059 -8.22,-46.379 -24.62,-63.969 -16.43,-17.61 -36.45,-26.379 -60.06,-26.379 -23.2,0 -42.99,8.89 -59.34,26.719 -16.36,17.824 -24.55,39.488 -24.55,65.019 0,24.36 8.34,45.348 25.02,62.938 16.68,17.589 36.52,26.386 59.49,26.386 21.62,0 40.19,-7.718 55.82,-22.922 v 40.438 c -16.89,10.215 -35.79,15.414 -56.77,15.414 -31.76,0 -58.68,-12.215 -80.83,-36.648 -22.14,-24.418 -33.2,-53.996 -33.2,-88.719 0,-33.231 11.31,-61.844 33.93,-85.887 22.61,-24.019 49.63,-36.027 81.05,-36.027 31.66,0 58.73,12.097 81.24,36.301 22.5,24.199 33.76,53.312 33.76,87.336 0,34.375 -11.27,63.578 -33.82,87.605"
         style="fill:#e86d1f;fill-opacity:1;fill-rule:nonzero;stroke:none"
         transform="matrix(0.13333333,0,0,-0.13333333,0,203.94667)" />
      <path
         id="path58"
         d="m 2440.36,490.602 h -9.66 v 162.113 l -78.63,-115.192 -79.16,115.192 V 490.602 h -9.14 v 179.007 h 9.14 l 79.16,-115.543 78.63,115.543 h 9.66 z m -27.26,207.293 -61.03,-89.672 -61.58,89.672 h -0.6 c 0.2,-3.387 0.8,-16.762 -1.92,-17.129 0,0 -4.37,-11.875 -3.96,11.25 v 5.879 h -55.59 V 462.328 h 75.19 v 84.828 l 48.46,-70.687 47.93,70.687 v -84.828 h 75.53 v 235.567 h -62.43"
         style="fill:#e86d1f;fill-opacity:1;fill-rule:nonzero;stroke:none"
         transform="matrix(0.13333333,0,0,-0.13333333,0,203.94667)" />
      <path
         id="path59"
         d="m 2670.64,658.922 c -9.25,14.949 -21.34,25.109 -36.3,30.519 -15.75,5.637 -35.06,8.45 -57.94,8.45 h -74.15 v -13.528 c 19.28,-14.476 19.93,-34.211 19.93,-34.211 -3.65,-23.078 -15.32,-7.82 -19.93,-0.632 v -44.075 l 9,-4.609 c 8.39,0 0,13.223 0,13.223 -4.33,12.714 7.88,11.687 7.88,11.687 8.64,0 12.72,-38.641 12.72,-38.641 0.87,-4.031 2.49,-5.117 4.2,-4.953 v 87.457 h 40.35 c 17.82,0 31.78,-2.183 41.9,-6.543 10.12,-4.371 18.05,-11.734 23.81,-22.074 5.39,-9.66 8.1,-20.582 8.1,-32.769 0,-12.875 -3.17,-24.399 -9.5,-34.582 -6.32,-10.164 -14.62,-17.118 -24.91,-20.852 -10.29,-3.742 -23.42,-5.625 -39.4,-5.625 h -30.7 v -56.562 h -9.65 v 38.027 c -3.06,12.422 -26.88,46.918 -33.8,56.769 V 561.52 c 10.43,-10.868 2.4,-13.465 0,-13.961 v -85.231 h 74.15 v 56.563 c 26.9,0.347 47.51,3.621 61.82,9.828 14.32,6.222 25.72,16.797 34.23,31.734 8.05,14.141 12.07,30.055 12.07,47.77 0,18.847 -4.62,35.75 -13.88,50.699"
         style="fill:#e86d1f;fill-opacity:1;fill-rule:nonzero;stroke:none"
         transform="matrix(0.13333333,0,0,-0.13333333,0,203.94667)" />
      <path
         id="path60"
         d="m 2576.4,634.262 c 20.7,-0.352 31.04,-9.028 31.04,-26.039 0,-16.891 -10.34,-25.52 -31.04,-25.871 z m 56.91,-54.324 c 4.72,8.503 7.06,17.937 7.06,28.285 0,11.035 -2.75,20.972 -8.27,29.828 -5.53,8.859 -12.71,14.918 -21.55,18.199 -8.85,3.277 -20.25,4.91 -34.15,4.91 h -30.7 v -73.25 c 14.22,0.82 6.99,-15.043 6.99,-15.043 -5.27,0 -6.64,-5.769 -6.99,-8.121 v -9.465 h 30.7 c 28.74,0 47.71,8.219 56.91,24.657"
         style="fill:#e86d1f;fill-opacity:1;fill-rule:nonzero;stroke:none"
         transform="matrix(0.13333333,0,0,-0.13333333,0,203.94667)" />
      <path
         id="path61"
         d="m 2750.84,535.457 15.88,41.383 16.03,-41.383 z m -39.14,-19.148 h 110.19 L 2766.72,661.16 2711.7,516.309"
         style="fill:#e86d1f;fill-opacity:1;fill-rule:nonzero;stroke:none"
         transform="matrix(0.13333333,0,0,-0.13333333,0,203.94667)" />
      <path
         id="path62"
         d="m 2825,508.199 h -116.58 l -6.56,-17.597 h -10.01 l 68.99,181.078 h 11.91 l 68.98,-181.078 h -10.01 z m -30,189.692 h -56.41 l -89.48,-235.563 h 26.67 c 10.95,35.301 18.54,5.563 19.8,0 h 27.67 l 7.93,21.211 h 71.21 l 7.77,-21.211 h 74.16 L 2795,697.891"
         style="fill:#e86d1f;fill-opacity:1;fill-rule:nonzero;stroke:none"
         transform="matrix(0.13333333,0,0,-0.13333333,0,203.94667)" />
      <path
         id="path63"
         d="m 3058.65,490.602 h -9.3 l -116.4,162.8 v -162.8 h -9.66 v 179.007 h 9.66 l 116.4,-162.781 v 162.781 h 9.3 z m -157.57,101.253 c 15.94,9.063 20.32,-15.625 20.32,-15.625 -12.35,-9.531 -20.32,15.625 -20.32,15.625 z m 116.54,106.04 v -90.707 l -65,90.707 h -44.84 v -30.239 c 0,0 -7.7,-4.804 -10.83,17.481 v 12.758 h -6.42 V 462.328 h 74.16 v 90.367 l 64.65,-90.367 h 62.44 v 235.567 h -74.16"
         style="fill:#e86d1f;fill-opacity:1;fill-rule:nonzero;stroke:none"
         transform="matrix(0.13333333,0,0,-0.13333333,0,203.94667)" />
      <path
         id="path64"
         d="m 3254.82,706.992 -46.83,-65.023 -0.51,0.945 -0.52,-0.945 -46.83,65.023 -62.68,-38.207 59.65,-92.414 c 1.73,0.738 6.61,3.207 4.11,6.777 0,0 9.42,4.29 12.85,-8.992 0,0 3.01,-4.707 10.29,-6.426 0,0 1.28,-32.988 -10.72,-3.859 0,0 -4.94,7.516 -10.3,2.848 l 5.86,-9.082 v -95.309 h 14.05 c -0.69,4.242 -2.93,21.934 5.31,35.051 v 47.129 c 0,0 7.72,5.996 12.86,13.281 0,0 -2.13,8.984 -2.24,15.438 l -57.89,85.589 7.96,4.696 57.41,-83.18 c 0.17,-0.031 0.31,-0.102 0.48,-0.148 l 0.35,0.644 0.48,-0.89 c 0.02,-0.012 0.04,-0.012 0.06,-0.02 l 18.01,26.105 c -0.26,6.766 -0.11,20.739 5.37,23.317 0,0 7.28,15.43 10.28,11.144 0,0 1.17,-4.05 2.02,-8.851 l 22,31.879 7.97,-4.696 -41.84,-61.859 v -54.16 c 0,0 -5.58,-3.426 -5.58,-13.277 0,0 -1.48,-14.989 -12.73,-29.559 L 3212.81,499 v -8.391 h -10.68 v 18.282 c -1.94,5.531 -6,15.73 -5.01,0.918 l -3,-30.848 -4.72,-2.57 -0.8,-14.063 h 57.16 v 95.309 l 71.74,111.148 -62.68,38.207"
         style="fill:#e86d1f;fill-opacity:1;fill-rule:nonzero;stroke:none"
         transform="matrix(0.13333333,0,0,-0.13333333,0,203.94667)" />
      <path
         id="path65"
         d="m 3212.81,541.332 c 3.28,-0.039 9.47,1.203 9.16,11.32 l -1.72,17.137 c 0,0 0.32,4.121 -4.65,3.164 l -2.79,-4.105 v -27.516"
         style="fill:#e86d1f;fill-opacity:1;fill-rule:nonzero;stroke:none"
         transform="matrix(0.13333333,0,0,-0.13333333,0,203.94667)" />
      <path
         id="path66"
         d="m 533.129,1112.11 c 0.937,-8.12 -6.563,-9.68 -6.563,-9.68 v 33.75 c 10.313,0 6.563,-24.07 6.563,-24.07 z m -14.477,-22.09 c 0,0 -0.004,8.34 7.914,5.84 0,0 5,-10 -7.914,-5.84 z m -29.636,-85.28 c -8.246,-4.951 -20.832,-7.412 -37.793,-7.412 h -7.059 v 106.312 h 7.059 c 16.476,0 29.07,-2.35 37.793,-7.06 17.425,-9.66 26.136,-25.08 26.136,-46.28 0,-20.47 -8.711,-35.67 -26.136,-45.56 z m -81.2,-50.166 c 0,0 -4.043,12.11 -3.75,16.25 0,0 1.672,33.336 7.5,8.75 0,0 1.25,-25.41 -3.75,-25 z m 128.883,180.146 c -19.781,13.9 -41.679,21.66 -65.699,23.31 -0.824,0.05 -1.891,0.09 -2.812,0.14 1.902,-4.07 16.503,-17.68 16.503,-17.68 -6.562,-1.29 -16.875,-10.25 -16.875,-10.25 v 27.95 c -7.496,0.36 -17.957,0.54 -31.781,0.54 h -54.742 v -14.42 c 4.906,2.88 20.273,11.22 20.273,2.8 0,0 -3.058,-8.77 -20.273,-16.14 V 975.023 c 2,-0.789 5.184,-2.246 9.434,-5 0,0 10.836,2.09 10.836,-3.75 l -20.27,-14.285 v -16.125 h 27.035 c 1.711,4.844 7.883,21.446 8.238,9.961 l 0.313,-9.961 h 5.738 c 23.559,0 44.254,1.75 62.278,5.137 v 28.613 c 8.75,8.75 7.078,-21.679 7.078,-21.679 -0.039,-2.059 -0.149,-3.829 -0.278,-5.457 24.696,5.468 43.953,14.238 57.36,26.589 21.195,19.786 31.789,44.634 31.789,74.534 0,40.26 -14.715,70.63 -44.145,91.12"
         style="fill:#729bc7;fill-opacity:1;fill-rule:nonzero;stroke:none"
         transform="matrix(0.13333333,0,0,-0.13333333,0,203.94667)" />
      <path
         id="path67"
         d="m 590.742,1132.11 c 0,0 -16.871,-1.46 -16.676,4.07 0,0 -2.914,9.25 7.086,8.43 0,0 11.664,17.48 9.164,33.32 0,0 14.164,13.77 17.5,-9.16 0,0 10.43,-29.16 -17.074,-36.66 z M 586.5,809.43 h -22.965 l -69.574,115.847 c -20.723,-4.004 -43.094,-6.004 -67.109,-6.004 H 381.293 V 809.43 h -18.715 v 366.61 h 72.75 c 33.438,0 60.336,-3.65 80.703,-10.94 20.364,-7.3 38.086,-19.31 53.157,-36.03 20.25,-22.37 30.378,-50.86 30.378,-85.47 0,-55.334 -28.375,-92.893 -85.117,-112.666 z m -175.367,60.164 c -0.586,0 -0.945,-0.028 -1.383,-0.047 0.074,-0.988 0.148,-1.75 0.148,-1.75 0,0 -5.562,1.523 -0.148,1.75 -0.148,2.039 -0.312,5.437 0.148,7.937 0,0 3.012,15 2.372,22.278 -0.332,1.679 -0.567,2.742 -0.567,2.742 0.301,-0.664 0.469,-1.629 0.567,-2.742 1.554,-7.883 5.371,-30.168 -1.137,-30.168 z m -3.863,-83.301 -19.457,-1.25 c -7.915,0.41 -4.165,15.84 -4.165,15.84 4.168,7.93 10.829,-5.645 10.829,-5.645 9.168,-1.054 12.793,9.395 12.793,9.395 6.96,5.43 0,-18.34 0,-18.34 z m -93.633,78.32 c 0,0 -3.75,-11.25 -7.5,-4.16 0,0 -5.414,20 10,16.66 0,0 1.668,-7.91 -2.5,-12.5 z m 293.343,46.172 c 18.368,15.559 31.786,29.445 40.266,41.692 18.363,26.132 27.543,57.333 27.543,93.603 0,26.83 -6.41,53.32 -19.242,79.45 -12.836,26.13 -29.965,47.81 -51.387,64.99 -36.265,28.96 -84.062,43.44 -143.398,43.44 H 290.164 V 751.508 h 154 V 870.18 L 522.219,751.508 H 697.398 L 606.98,910.785"
         style="fill:#729bc7;fill-opacity:1;fill-rule:nonzero;stroke:none"
         transform="matrix(0.13333333,0,0,-0.13333333,0,203.94667)" />
      <path
         id="path68"
         d="m 416.98,927.914 c 0,0 -19.867,-1.68 -9.097,6.66 0,0 8.269,24.59 8.683,11.25 l 0.414,-13.32 c 0,0 9.168,-4.16 0,-4.59 z m -5.847,-58.32 c -0.586,0 -0.945,-0.028 -1.383,-0.047 0.074,-0.988 0.148,-1.75 0.148,-1.75 0,0 -5.562,1.523 -0.148,1.75 -0.148,2.039 -0.312,5.437 0.148,7.937 0,0 3.012,15 2.372,22.278 -0.332,1.679 -0.567,2.742 -0.567,2.742 0.301,-0.664 0.469,-1.629 0.567,-2.742 1.554,-7.883 5.371,-30.168 -1.137,-30.168 z m -3.863,-83.301 -19.457,-1.25 c -7.915,0.41 -4.165,15.84 -4.165,15.84 4.168,7.93 10.829,-5.645 10.829,-5.645 9.168,-1.054 12.793,9.395 12.793,9.395 6.96,5.43 0,-18.34 0,-18.34 z m -93.633,78.32 c 0,0 -3.75,-11.25 -7.5,-4.16 0,0 -5.414,20 10,16.66 0,0 1.668,-7.91 -2.5,-12.5 z m 293.343,46.172 c 18.368,15.559 31.79,29.445 40.266,41.692 6.289,8.945 11.414,18.535 15.547,28.66 -7.398,3.996 -16.848,7.07 -22.777,11.074 -11.203,7.578 -16.996,5.605 -30.012,-0.555 -4.766,-2.258 -9.559,-7.558 -16.68,-9.445 -9.918,-2.637 -21.902,-1.992 -32.136,-3.504 -11.391,-1.672 -26.958,-0.656 -37.95,-3.977 -5.851,-1.785 -9.269,-5.742 -15.285,-6.914 -6.476,-1.257 -11.918,-1.367 -17.09,-0.847 1.774,-6.699 1.11,-19.035 1.11,-19.035 -0.418,-22.5 -7.078,-17.5 -7.078,-17.5 v 37.472 c -5.364,1.27 -10.563,3.321 -16.266,6.434 -7.238,3.926 -10.055,2.59 -18.094,1.855 -7.855,-0.722 -13.676,-1.172 -20.183,-3.379 -5.34,-1.796 -28.301,-0.605 -34.75,-8.875 -6.95,-7.941 -40.079,-26.964 -42.672,-35.898 -1.617,-5.598 1.449,-6.32 -4.043,-10.645 -3.614,-2.843 -8.965,-2.382 -12.91,-4.054 -12.344,-5.235 -29.922,-25.957 -45.813,-36.016 v -125.82 h 154 V 870.18 L 522.219,751.508 H 697.398 L 606.98,910.785"
         style="fill:#e86d1f;fill-opacity:1;fill-rule:nonzero;stroke:none"
         transform="matrix(0.13333333,0,0,-0.13333333,0,203.94667)" />
      <path
         id="path69"
         d="m 654.672,990.309 c -4.57,1.98 -8.891,3.855 -11.938,5.925 -13.496,9.146 -21.621,6.056 -34.808,-0.195 -2.164,-1.023 -4.121,-2.422 -6.203,-3.887 -2.961,-2.109 -6.032,-4.285 -9.637,-5.254 -1.965,-0.515 -4.078,-0.867 -6.246,-1.16 -3.91,-0.539 -8.051,-0.812 -12.117,-1.066 -3.887,-0.234 -7.864,-0.508 -11.688,-0.984 -0.512,-0.071 -1.051,-0.098 -1.551,-0.168 -4.195,-0.625 -9.035,-0.86 -14.171,-1.102 -8.446,-0.41 -17.176,-0.832 -24.489,-3.039 -3.211,-0.984 -5.746,-2.469 -7.992,-3.777 -2.324,-1.36 -4.344,-2.539 -6.805,-3.02 -15.523,-3.008 -24.644,-0.215 -36.082,6.016 -7.332,3.984 -11.472,3.496 -17.207,2.812 -1.086,-0.117 -2.289,-0.262 -3.64,-0.379 l -1.055,-0.097 c -7.539,-0.696 -13.484,-1.231 -20.242,-3.508 -1.024,-0.352 -4.348,-0.645 -7.285,-0.899 -10.086,-0.886 -23.887,-2.089 -29.567,-9.394 -1.722,-1.953 -5.902,-5.137 -10.66,-8.582 -1.762,-1.27 -3.594,-2.59 -5.422,-3.879 -5.101,-3.652 -9.504,-6.856 -13.293,-9.774 -8.008,-6.183 -13.011,-11.046 -14.308,-15.519 -0.77,-2.664 -0.746,-4.609 -0.739,-5.899 0.008,-0.312 0.036,-0.585 0.067,-0.652 -0.016,-0.031 -0.293,-0.5 -1.703,-1.613 -1.243,-0.977 -3.371,-1.367 -5.621,-1.777 -2.028,-0.372 -4.125,-0.762 -6.188,-1.629 -7.422,-3.137 -15.902,-10.754 -24.879,-18.821 -5.988,-5.379 -12.687,-11.367 -19.039,-15.8 v -11.543 c 8.41,4.785 17.047,12.511 25.52,20.117 8.371,7.511 16.257,14.59 22.183,17.109 1.074,0.449 2.567,0.723 4.153,1.016 3.16,0.578 6.742,1.242 9.867,3.691 4.558,3.594 5.398,6.289 5.355,10.02 -0.015,1.015 -0.019,1.797 0.356,3.086 0.363,1.269 2.324,3.32 4.976,5.644 5.242,4.629 13.387,10.469 18.715,14.277 0.074,0.04 0.156,0.098 0.219,0.157 7.855,5.597 14.637,10.429 17.922,14.199 3.25,4.172 16.058,5.293 22.929,5.891 4.313,0.378 7.438,0.652 9.551,1.367 5.668,1.922 10.848,2.39 18.012,3.035 l 1.055,0.098 c 1.449,0.136 2.734,0.293 3.902,0.429 5.094,0.586 6.801,0.801 11.422,-1.699 12.781,-6.973 24.347,-10.566 42.586,-7.031 4.086,0.801 7.144,2.578 9.843,4.16 1.958,1.152 3.805,2.227 5.918,2.871 6.157,1.867 14.278,2.258 22.145,2.637 2.102,0.097 4.125,0.215 6.141,0.332 3.105,0.207 6.129,0.429 8.961,0.851 3.867,0.575 8.015,0.809 12.406,1.082 1.637,0.098 3.277,0.196 4.929,0.313 5.219,0.371 10.454,0.937 15.34,2.226 5.309,1.407 9.453,4.348 12.785,6.711 1.715,1.219 3.333,2.371 4.735,3.036 12.855,6.074 16.445,6.847 25.207,0.918 3.793,-2.559 8.723,-4.708 13.496,-6.778 3.492,-1.531 7.004,-3.105 10.059,-4.785 1.328,2.969 2.605,5.977 3.738,9.043 -3.164,1.68 -6.563,3.176 -9.918,4.641"
         style="fill:#ffffff;fill-opacity:1;fill-rule:nonzero;stroke:none"
         transform="matrix(0.13333333,0,0,-0.13333333,0,203.94667)" />
      <path
         id="path70"
         d="m 995.813,1053.48 c -3.469,-2.94 -7.036,-5.91 -10.403,-5.91 h -0.035 c -25.594,0.05 -55.855,-3.21 -81.016,-8.91 -4.714,-1.06 -9.32,-1.59 -13.769,-2.1 -8.836,-1.01 -17.184,-1.95 -25.602,-6.77 -9.265,-5.3 -16.304,-6.68 -25.222,-8.44 -3.067,-0.61 -6.305,-1.25 -9.86,-2.08 -8.261,-1.95 -14.547,-6.59 -20.429,-11.49 -1.043,-0.86 -2.09,-1.72 -3.114,-2.59 -1.875,-1.59 -3.73,-3.19 -5.633,-4.68 -3.742,-2.916 -6.859,-5.26 -9.976,-7.151 -4.691,-2.847 -9.402,-4.613 -16.297,-5.492 -9.441,-1.187 -16.684,-2.394 -23.922,-7.066 -2.57,-1.66 -4.156,-3.102 -5.308,-4.153 -1.942,-1.765 -2.676,-2.414 -8.497,-3.089 l -2.746,-0.332 c -5.074,-0.629 -11.062,-1.336 -15.629,-0.692 v -9.68 c 5.665,-0.621 11.657,0.098 16.825,0.735 l 2.664,0.324 c 8.039,0.93 10.515,2.477 13.898,5.539 1.067,0.969 2.153,1.961 4.071,3.199 5.105,3.293 10.039,4.352 19.855,5.586 6.105,0.77 10.816,2.184 15.086,4.149 5.508,2.531 10.23,6.011 15.945,10.472 2.012,1.575 3.989,3.254 5.973,4.938 1.808,1.558 3.621,3.043 5.426,4.473 4.343,3.42 8.793,6.3 14.035,7.54 3.433,0.81 6.555,1.42 9.515,2.01 9.399,1.85 17.512,3.45 28.165,9.54 6.679,3.83 13.722,4.62 21.871,5.55 4.711,0.54 9.582,1.09 14.824,2.28 24.055,5.45 52.902,8.67 77.492,8.67 0.469,0 0.988,-0.06 1.41,0 5.957,0 10.653,3.23 14.79,6.63 v 8.99 h -4.387"
         style="fill:#ffffff;fill-opacity:1;fill-rule:nonzero;stroke:none"
         transform="matrix(0.13333333,0,0,-0.13333333,0,203.94667)" />
    </g>
  </g>
</svg>
